<?xml version="1.0" encoding="utf-8"?>
<!-- Generator: Adobe Illustrator 16.0.0, SVG Export Plug-In . SVG Version: 6.00 Build 0)  -->
<!DOCTYPE svg PUBLIC "-//W3C//DTD SVG 1.0//EN" "http://www.w3.org/TR/2001/REC-SVG-20010904/DTD/svg10.dtd">
<svg version="1.0" id="Layer_1" xmlns="http://www.w3.org/2000/svg" xmlns:xlink="http://www.w3.org/1999/xlink" x="0px" y="0px"
	 width="630px" height="142.46px" viewBox="0 31.792 630 142.46" enable-background="new 0 31.792 630 142.46" xml:space="preserve"
	>
<g>
	<path fill="#FFFFFF" d="M537.536,50.375h12.832l3.979-17.253c-0.438,0-4.424-0.885-4.424-0.885l-1.326,7.08
		c-0.882,0-1.771,0-2.215,0l-1.326,5.309h-3.098l0.444-5.753c-1.326,0-1.326,0-2.215,0l0.444-7.08h-6.194l0.444,7.08
		c-0.889,0-0.889,0-2.209,0l0.438,5.753h-3.098l-0.882-5.753c-0.889,0-1.777,0-2.215,0l-1.327-6.635c0,0-3.985,0.441-4.423,0.885
		l3.979,17.253H537.536L537.536,50.375z"/>
	<path fill="#FFFFFF" d="M544.174,158.322h-13.721c-1.32,0-2.653,1.333-2.653,2.653c0,1.332,1.333,2.659,2.653,2.659h13.721
		c1.327,0,2.653-1.327,2.653-2.659C546.827,159.211,545.501,158.322,544.174,158.322L544.174,158.322z"/>
	<polygon fill="#FFFFFF" points="525.591,164.072 549.036,164.072 549.036,173.809 525.591,173.809 	"/>
	<path fill="#FFFFFF" d="M546.383,166.287H527.8v5.313h19.027L546.383,166.287L546.383,166.287L546.383,166.287z M546.383,166.731
		c0,0.438,0,3.535,0,3.979c-0.444,0-17.25,0-18.139,0c0-0.444,0-3.541,0-3.979C528.688,166.731,545.938,166.731,546.383,166.731
		L546.383,166.731z"/>
	<path fill="#FFFFFF" d="M537.536,113.642c-0.444,0.441-3.542,3.539-3.542,3.539l-3.541-3.539v7.077
		c0.889,0.885,3.097,3.097,3.541,3.541c0.444-0.444,3.542-3.541,3.542-3.541s3.097,3.097,3.541,3.541
		c0.444-0.444,2.653-2.656,3.541-3.541v-7.077l-3.541,3.539C541.077,117.181,537.979,113.642,537.536,113.642L537.536,113.642z"/>
	<path fill="#FFFFFF" d="M537.536,121.163c-0.444,0.44-3.542,3.538-3.542,3.538l-3.541-3.538v7.076
		c0.889,0.886,3.097,3.098,3.541,3.541c0.444-0.443,3.542-3.541,3.542-3.541s3.097,3.098,3.541,3.541
		c0.444-0.443,2.653-2.655,3.541-3.541v-7.076l-3.541,3.538C541.077,124.701,537.979,121.604,537.536,121.163L537.536,121.163z"/>
	<path fill="#FFFFFF" d="M537.536,105.677c-0.444,0.444-3.542,3.538-3.542,3.538l-3.541-3.538v7.08
		c0.889,0.885,3.097,3.097,3.541,3.538c0.444-0.441,3.542-3.538,3.542-3.538s3.097,3.097,3.541,3.538
		c0.444-0.441,2.653-2.653,3.541-3.538v-7.08l-3.541,3.538C541.077,109.215,537.979,106.121,537.536,105.677L537.536,105.677z"/>
	<path fill="#FFFFFF" d="M537.536,128.684c-0.444,0.441-3.542,3.538-3.542,3.538l-3.541-3.538v7.08
		c0.889,0.882,3.097,3.097,3.541,3.538c0.444-0.441,3.542-3.538,3.542-3.538s3.097,3.097,3.541,3.538
		c0.444-0.441,2.653-2.656,3.541-3.538v-7.08l-3.541,3.538C541.077,132.222,537.979,129.125,537.536,128.684L537.536,128.684z"/>
	<path fill="#FFFFFF" d="M537.536,136.204c-0.444,0.441-3.542,3.538-3.542,3.538l-3.541-3.538v7.08
		c0.889,0.882,3.097,3.097,3.541,3.538c0.444-0.441,3.542-3.538,3.542-3.538s3.097,3.097,3.541,3.538
		c0.444-0.441,2.653-2.656,3.541-3.538v-7.08l-3.541,3.538C541.077,139.742,537.979,136.646,537.536,136.204L537.536,136.204z"/>
	<path fill="#FFFFFF" d="M537.536,98.156c-0.444,0.441-3.542,3.538-3.542,3.538l-3.541-3.538v7.079
		c0.889,0.886,3.097,3.098,3.541,3.539c0.444-0.441,3.542-3.539,3.542-3.539s3.097,3.098,3.541,3.539
		c0.444-0.441,2.653-2.653,3.541-3.539v-7.079l-3.541,3.538C541.077,101.694,537.979,98.598,537.536,98.156L537.536,98.156z"/>
	<path fill="#FFFFFF" d="M537.536,144.166c-0.444,0.444-3.542,3.542-3.542,3.542l-3.541-3.542v6.642
		c0.889,0.883,3.097,3.098,3.541,3.535c0.444-0.438,3.542-3.535,3.542-3.535s3.097,3.098,3.541,3.535
		c0.444-0.438,2.653-2.652,3.541-3.535v-7.083l-3.541,3.539C541.077,147.708,537.979,144.166,537.536,144.166L537.536,144.166z"/>
	<path fill="#FFFFFF" d="M537.536,60.108c-0.444,0.443-3.542,3.538-3.542,3.538l-3.541-3.538v6.635
		c0.889,0.886,3.097,3.098,3.541,3.542c0.444-0.444,3.542-3.542,3.542-3.542s3.097,3.098,3.541,3.542
		c0.444-0.444,2.653-2.656,3.541-3.542v-6.635l-3.541,3.538C541.077,63.646,537.979,60.552,537.536,60.108L537.536,60.108z"/>
	<path fill="#FFFFFF" d="M533.994,62.764c0.444-0.443,3.542-3.541,3.542-3.541s3.097,3.098,3.541,3.541
		c0.444-0.443,2.653-2.655,3.541-3.541v-2.653h-14.165v2.653C531.342,60.108,533.55,62.32,533.994,62.764L533.994,62.764z"/>
	<path fill="#FFFFFF" d="M537.536,90.636c-0.444,0.44-3.542,3.538-3.542,3.538l-3.541-3.538v7.079
		c0.889,0.883,3.097,3.098,3.541,3.538c0.444-0.44,3.542-3.538,3.542-3.538s3.097,3.098,3.541,3.538
		c0.444-0.44,2.653-2.655,3.541-3.538v-7.079l-3.541,3.538C541.077,94.174,537.979,91.076,537.536,90.636L537.536,90.636z"/>
	<path fill="#FFFFFF" d="M541.077,155.226c0,0-3.098-3.098-3.541-3.535c-0.444,0.438-3.542,3.535-3.542,3.535l-3.541-3.535v6.188
		h14.165v-5.75L541.077,155.226L541.077,155.226z"/>
	<path fill="#FFFFFF" d="M537.536,83.114c-0.444,0.441-3.542,3.539-3.542,3.539l-3.541-3.539v7.08
		c0.889,0.882,3.097,3.097,3.541,3.538c0.444-0.441,3.542-3.538,3.542-3.538s3.097,3.097,3.541,3.538
		c0.444-0.441,2.653-2.656,3.541-3.538v-7.08l-3.541,3.539C541.077,86.653,537.979,83.114,537.536,83.114L537.536,83.114z"/>
	<path fill="#FFFFFF" d="M537.536,67.629c-0.444,0.444-3.542,3.541-3.542,3.541l-3.541-3.541v7.079
		c0.889,0.886,3.097,3.098,3.541,3.539c0.444-0.441,3.542-3.539,3.542-3.539s3.097,3.098,3.541,3.539
		c0.444-0.441,2.653-2.653,3.541-3.539v-7.079l-3.541,3.541C541.077,71.17,537.979,68.073,537.536,67.629L537.536,67.629z"/>
	<path fill="#FFFFFF" d="M537.536,75.149c-0.444,0.444-3.542,3.542-3.542,3.542l-3.541-3.542v7.08
		c0.889,0.885,3.097,3.097,3.541,3.538c0.444-0.441,3.542-3.538,3.542-3.538s3.097,3.097,3.541,3.538
		c0.444-0.441,2.653-2.653,3.541-3.538v-7.08l-3.541,3.542C541.077,78.691,537.979,75.594,537.536,75.149L537.536,75.149z"/>
	<path fill="#FFFFFF" d="M553.021,40.199v-0.441c-5.306-0.885-10.618-1.326-15.485-1.326c-6.639,0-11.501,0.885-15.486,1.326v0.441
		c0.444,0,1.333-0.441,1.771-0.441l0.883,5.309c-0.883,0-1.32,0.441-1.765,0.441v0.444c1.326,0,3.097-0.444,5.306-0.885l0.889,5.75
		h0.444l-0.889-5.75c1.765,0,3.097-0.441,4.861-0.441l0.444,6.635h0.444l-0.444-6.635c0.889,0,1.771,0,2.653,0
		c0.889,0,1.776,0,2.659,0l-0.444,6.635h0.444l0.438-6.635c1.777,0,3.542,0,4.874,0.441l-0.888,5.75h0.443l0.883-5.75
		c2.215,0.441,3.979,0.441,5.312,0.885v-0.444c-0.444,0-1.332,0-1.776-0.441l0.889-5.309
		C551.688,40.199,552.577,40.199,553.021,40.199L553.021,40.199z M524.703,39.757c3.541-0.441,7.526-0.885,12.833-0.885v5.309
		c-4.424,0-8.848,0.444-11.501,0.885L524.703,39.757L524.703,39.757z M549.48,45.066c-3.098-0.441-7.521-0.885-11.501-0.885v-5.309
		c3.979,0,8.403,0.444,12.833,0.885L549.48,45.066L549.48,45.066z"/>
	<path fill="#FFFFFF" d="M544.174,51.261h-13.721c-1.32,0-2.653,1.326-2.653,2.653c0,1.329,1.333,2.655,2.653,2.655h13.721
		c1.327,0,2.653-1.326,2.653-2.655C546.827,52.146,545.501,51.261,544.174,51.261L544.174,51.261z"/>
	<path fill="#FFFFFF" d="M529.577,76.479c1.32,0.44,2.208,1.326,1.765,3.538c0,0-0.889-0.886-2.209-0.441c-0.889,0,0,0,0,0
		L529.577,76.479L529.577,76.479z"/>
	<path fill="#FFFFFF" d="M530.015,86.212c2.659,0.441,3.098,1.326,3.098,1.326s-0.438,0.886-3.098,1.326V86.212L530.015,86.212z"/>
	<path fill="#FFFFFF" d="M529.577,95.503c0.876,0,1.32,0,1.765-0.444c0,0,0.888,2.212-1.765,3.098V95.503L529.577,95.503z"/>
	<path fill="#FFFFFF" d="M529.577,123.375c0.876,0.44,2.208,0.885,2.208,1.771c0,0-1.332,0-2.208,0.882V123.375L529.577,123.375z"/>
	<path fill="#FFFFFF" d="M529.577,126.913c1.32,0,2.208,0.885,2.652,1.771c0,0-1.332,0-2.215,1.326L529.577,126.913L529.577,126.913
		z"/>
	<path fill="#FFFFFF" d="M529.577,131.337c1.32,0,2.208,0.885,2.652,1.771c0,0-1.332,0-1.776,1.326L529.577,131.337L529.577,131.337
		z"/>
	<polygon fill="#FFFFFF" points="500.37,66.743 500.37,68.514 504.8,68.514 504.8,66.743 500.37,66.743 	"/>
	<polygon fill="#FFFFFF" points="504.8,70.285 499.932,70.285 499.932,72.053 504.8,72.053 504.8,70.285 	"/>
	<polygon fill="#FFFFFF" points="504.8,76.92 482.231,76.92 482.231,78.691 504.8,78.691 504.8,76.92 	"/>
	<polygon fill="#FFFFFF" points="499.487,73.823 498.605,75.149 504.8,75.149 504.8,73.823 499.487,73.823 	"/>
	<polygon fill="#FFFFFF" points="486.661,66.743 482.231,66.743 482.231,68.514 486.661,68.514 486.661,66.743 	"/>
	<polygon fill="#FFFFFF" points="482.231,70.285 482.231,72.053 487.105,72.053 487.105,70.285 482.231,70.285 	"/>
	<path fill="#FFFFFF" d="M482.231,80.459v1.771h3.097l0,0c0.889-0.886,2.215-1.327,2.215-1.327h0.438L482.231,80.459L482.231,80.459
		L482.231,80.459z"/>
	<path fill="#FFFFFF" d="M482.231,87.097V84h1.332C483.119,84.886,482.676,85.768,482.231,87.097L482.231,87.097z"/>
	<polygon fill="#FFFFFF" points="487.543,73.823 482.231,73.823 482.231,75.149 488.426,75.149 487.543,73.823 	"/>
	<polygon fill="#FFFFFF" points="495.508,74.708 495.508,70.726 496.391,69.841 497.272,70.726 496.835,74.268 	"/>
	<path fill="#FFFFFF" d="M493.737,76.035c-0.882-0.441-1.326-1.327-1.326-2.653c0-0.885,0-3.541,0-3.541h2.652c0,0,0,2.212,0,3.541
		C495.063,74.708,494.62,75.594,493.737,76.035L493.737,76.035z"/>
	<polygon fill="#FFFFFF" points="491.522,74.708 491.522,70.726 490.641,69.841 490.196,70.726 490.641,74.268 	"/>
	<path fill="#FFFFFF" d="M529.577,96.386c-0.889,0-1.333-1.327-0.889-2.212l0.444-0.441c0.444-0.885,0.444-1.326,0-1.771
		c0,0-0.444,0.444-1.777,0.444c0,0,0,0,0.444,0.441c0,0.443-0.444,0.885-0.882,0.885c-0.438,0-1.327-0.441-1.771-1.326
		c-0.444-0.444-0.883-0.886-1.327-0.886c-1.326-0.444-2.652-0.444-5.312-0.444c-1.32,0-3.098-0.44-3.979-0.44
		c-0.883-0.441-1.771-0.886-1.771-1.327c0-0.444,1.332-0.885,2.652-1.329c1.333-0.441,3.542-0.441,5.313-0.883
		c2.659-0.443,3.097-2.211,3.979-3.541c0.444-1.326,1.776-1.768,2.652-1.768c0.444,0,1.333,0,1.333,0.886
		c0,0.44-0.444,0.44-0.444,0.44c0.889-0.44,1.771,0.441,1.771,0.441c0-0.441,0.438-0.882,0-1.768
		c-0.438-0.444-0.438-0.444-0.438-0.886c-0.444-0.443,0-1.771,0.876-1.771c0.889,0,0.889,0.444,0.889,0.444
		c0-0.885-0.444-1.329-1.765-1.771c-3.098-0.886-3.098,2.212-3.098,2.212c-0.889,0.441-1.776,0.885-2.215,1.771
		c-0.444,0.886-0.882,1.768-1.326,2.653c-0.444,0.885-1.771,1.326-4.43,1.326c-2.209,0-5.75-0.441-7.515-1.326
		c-2.215-0.441-3.985,0-4.43,1.326c-0.444,1.329-0.444,3.097,0.444,4.868c0.888,1.326,2.652,2.655,7.521,2.655
		c1.326,0,3.541,0,5.312-0.443c2.209-0.441,3.098-0.441,3.979,0c0.444,0.443,1.771,0.885,2.659,2.655c0,0,0.876,2.653,3.098,2.653
		c0.876,0,1.32-0.441,1.765-1.326C530.897,95.944,530.453,96.386,529.577,96.386L529.577,96.386z"/>
	<path fill="#FFFFFF" d="M527.355,87.538c0-0.885,1.333-1.326,2.222-1.326c0-0.444,0-0.444,0-0.886c0-0.885-0.889-1.771-2.659-1.771
		s-3.535,1.33-3.535,3.982c0,3.098,1.765,3.982,3.535,3.982c1.326,0,2.215-0.885,2.659-1.771c0-0.441,0-0.886,0-0.886
		C528.244,88.864,527.355,88.424,527.355,87.538L527.355,87.538z"/>
	<path fill="#FFFFFF" d="M490.196,88.424c0-1.327,0.882-1.327,1.771-1.327c1.326-0.443,2.209-0.885,3.097-1.771
		c0.889-0.885,1.771-1.771,3.098-1.771s2.209,0,3.985,0.886c1.32,0.444,3.098,1.326,2.653,2.655c0,1.327,0,2.653,0.444,3.098
		c0.438,0.441,0.438,1.768-0.889,2.212c-0.889,0.441-2.209,0.441-3.985,0.441c-3.098,0-6.194-1.327-8.403-2.212
		C491.078,89.75,490.196,89.309,490.196,88.424L490.196,88.424z"/>
	<path fill="#FFFFFF" d="M496.391,93.291c0.444,0,0.444,0.441,0.444,1.327c0,0.44-0.444,2.212-3.542,4.864
		c-0.882,0.886-2.652,2.212-4.424,2.212c-1.326,0-1.764-0.882-1.764-1.326c0,0,0-0.886,0-1.326c0-0.444,0.438-1.327,0.876-1.327
		c1.332-0.444,3.985-1.329,4.874-3.541c0.438-0.441,0.882-1.326,1.765-0.883C495.508,92.848,495.952,93.291,496.391,93.291
		L496.391,93.291z"/>
	<path fill="#FFFFFF" d="M499.932,82.229c-3.541-0.441-3.979,0.444-6.194,2.212c-1.771,1.326-3.097,1.771-3.097,1.326
		c-0.444-0.882,0.882-1.768,1.326-2.212c0.444-0.441,0-0.882-0.889-0.441c-0.882,0.441-2.652,2.212-3.097,3.982l0,0l0,0
		c0,0.441-0.438,2.212,0.888,3.539c0.889,0.44,1.327,0.885,2.209,1.326c0.889,0.444,0.889,1.329,0.444,2.212
		c-0.882,0.885-2.209,2.212-3.979,2.656c-0.882,0.44-1.771,0.885-1.771,2.212c0,2.652,0,10.617,0,11.059
		c0,0.886-0.444,1.771-1.765,1.771c-1.332,0-1.776,0.441-1.776-0.885c0-0.886,0-15.928,0-17.695c0-7.523,4.43-10.617,5.75-11.503
		c2.659-1.329,7.526-2.212,12.389-1.329c3.097,0.443,5.312,1.771,6.194,3.097c0,0-0.883,0.444-1.765,1.33
		C505.244,84.441,503.467,82.674,499.932,82.229L499.932,82.229z"/>
	<path fill="#FFFFFF" d="M503.911,96.386c0,0-2.653,0-3.979-1.327c-0.444-0.44-0.444-1.326,0.438-1.326c0.888,0,2.215,0,3.541,0
		V96.386L503.911,96.386z"/>
	<path fill="#FFFFFF" d="M503.467,97.271c0,0.444-0.438,0.886-0.882,1.327c0,0-0.438,0-1.327,0c-0.443,0-0.888,0-1.771-0.441
		c-0.438-0.441-1.326-1.326-1.771-1.771c-0.444-0.441-0.444-0.883-0.444-1.327c0.444-0.44,0.889-0.44,1.333,0
		c0.882,0.444,1.326,0.886,2.209,1.327c0.888,0.444,1.332,0.444,2.215,0.444C503.467,96.83,503.911,97.271,503.467,97.271
		L503.467,97.271z"/>
	<path fill="#FFFFFF" d="M502.146,102.139c-1.332,0.441-2.659-0.444-3.097-0.886c-0.444-0.44-2.215-1.771-2.659-2.211
		c-0.438-0.444-0.438-1.327-0.438-1.771c0.438-0.44,0.883-0.44,1.32-0.44c0.444,0.44,1.333,1.326,1.777,1.326
		c0.882,0.441,1.765,0.886,2.208,0.886c0,0,0.889,0,1.327,0c0.444,0,0.882,0,0.444,0.885
		C503.467,100.813,503.029,101.694,502.146,102.139L502.146,102.139z"/>
	<path fill="#FFFFFF" d="M500.814,103.024c-0.883,0-1.765-0.444-2.209-0.886c-0.889-0.444-2.215-1.771-3.098-2.212
		c-0.444-0.444-1.332-0.444-1.332,0c-0.883,1.326,1.776,2.653,3.097,3.538c1.333,0.886,2.215,0.886,3.542,0.886
		c0.888,0,1.771-0.886,1.771-1.771C502.146,103.024,501.702,103.024,500.814,103.024L500.814,103.024z"/>
	<path fill="#FFFFFF" d="M491.522,102.139c0.444-0.444,1.333-0.444,1.771,0c0.444,0.441,2.659,2.212,3.542,2.653
		c1.326,0.443,1.771,0.885,3.097,0.885c0,0,0,0.444-0.444,1.327c-0.438,0.443-1.771,0.443-3.097,0.443
		c-1.327-0.443-2.653-0.885-3.979-1.771C491.967,103.909,491.078,102.58,491.522,102.139L491.522,102.139z"/>
	<path fill="#FFFFFF" d="M487.543,103.024c0-0.444,0-0.444,0.438-0.444c0.444,0,0.444,0,0.888,0c0.444,0,0.889,0,1.327,0.444
		c0.882,1.326,1.771,2.211,3.097,3.097c0.883,0.883,3.098,1.326,4.424,1.326c0,0,0.444,0.441,0,0.886
		c-0.444,0.441-1.765,0.441-2.653,0.441c-0.888,0-3.097-0.886-4.867-2.653C489.313,105.235,487.981,104.351,487.543,103.024
		L487.543,103.024z"/>
	<path fill="#FFFFFF" d="M487.105,104.792c0.438,0,0.876,0,1.32,0.885c0.443,0.444,1.771,2.212,3.541,3.098
		c1.326,0.885,3.541,1.326,3.985,1.326c0.883,0,0.438,0.444-0.444,0.444c-0.888,0.441-2.652,0.441-4.43,0
		c-1.32-0.444-2.652-1.33-3.535-2.212c-0.438-0.886-0.882-0.886-0.882-1.771C487.105,106.563,486.661,105.235,487.105,104.792
		L487.105,104.792z"/>
	<path fill="#FFFFFF" d="M507.009,95.503c0,0-0.444-1.329-2.209-2.212c0,0,0.882-0.443,1.32-1.329c0,0,0.889,1.329,3.985,1.771
		C510.105,93.732,508.341,94.174,507.009,95.503L507.009,95.503z"/>
	<path fill="#FFFFFF" d="M481.787,114.527c0-1.771,1.332-1.771,2.221-1.771c0.876,0,2.209,0.44,2.653,1.326
		c0.882,0.886,1.32,1.771,1.32,4.868c0,3.097-0.438,8.847,2.659,8.847c3.097,0,3.979,0.441,4.867,2.656
		c0.883,2.212,0.883,5.75,0.883,10.618c0,4.424-2.215,13.271-5.75,13.271c-3.098,0-5.757-4.424-5.757-9.732
		c-0.438-5.75,0.889-8.406,1.777-11.063c0.882-2.211,0.882-3.538,0-4.423c-0.444-0.886-1.333-0.886-2.653-1.327
		c-0.889-0.44-2.221-0.44-2.221-2.652C481.787,122.048,481.787,114.527,481.787,114.527L481.787,114.527z"/>
	<path fill="#FFFFFF" d="M480.022,127.357v-7.08c-0.889,1.771-3.985,7.08-10.18,7.08c-1.32,0-4.418-0.444-7.07-3.098
		c-2.659-2.656-3.986-6.639-3.986-11.503v-3.982c0-11.504,0-24.333-2.652-30.527c-1.333-2.653-3.098-6.636-7.527-6.636
		c-2.209,0-3.535,1.326-3.535,3.097c0,1.771,1.326,3.098,3.098,3.098c0.438,0,0.882,0,0.882,0l0,0l0,0l0,0
		c1.771-0.444,3.097-0.444,4.43,1.771c3.098,5.75,2.653,19.021,2.653,29.198v3.982c0,13.271,8.402,16.813,13.709,16.813
		c2.659,0,4.43-0.444,6.194-1.33c1.332-0.441,2.215-0.441,2.659-0.441C479.578,128.239,480.022,127.798,480.022,127.357
		L480.022,127.357z"/>
	<path fill="#FFFFFF" d="M495.063,127.357c1.327,0,2.209-0.444,2.209-2.212c0-1.771,0-9.736,0-10.618c0-0.886,0-1.33-0.438-1.771
		c-0.444-0.444-0.883-0.886-0.883-1.771h-0.889v2.211c0,0,0.889,0.444,0.889,1.771c0,1.326,0,9.732,0,10.617
		C495.952,126.472,495.508,126.913,495.063,127.357L495.063,127.357z"/>
	<path fill="#FFFFFF" d="M498.161,121.604c0-1.768,2.653-2.652,5.306-2.652c3.098,0,5.75,0.44,7.527,1.768
		c1.32,1.329,1.765,3.097,1.32,4.867c-0.438,1.327-1.765,2.212-2.653,2.212c-0.882,0-1.765,0-2.652-0.885
		c-0.889-0.886-2.653-1.768-4.862-1.768C500.37,125.146,497.717,125.146,498.161,121.604L498.161,121.604z"/>
	<path fill="#FFFFFF" d="M509.217,138.86c0-1.329,0-6.639-1.765-9.291c-0.888-1.33-2.652-3.542-6.638-3.542
		c-3.979,0-4.424,2.656-4.424,3.982c0.444,3.098,2.215,3.982,3.541,3.982s3.098-0.444,4.424-1.326c1.326-0.444,1.326,0,1.326,0.882
		c0.438,3.542-0.438,7.08-0.438,7.08c0,0.886,0,1.771,0.438,2.212c0.438,0.444,1.327,0.444,1.771,0c0.889-0.441,1.765,0,2.653,0
		c1.326,0,2.653-0.441,4.868-0.441s6.632,0.441,9.291,0.441c2.215,0,3.535-1.768,3.979-2.653c0.444-1.326,0.444-3.541-0.444-4.423
		c-1.32-1.33-2.652-0.886-3.097-0.886c-0.883,0-1.32,0-1.765,0c-0.444-0.444-0.444-1.33-0.444-1.771
		c0,0.885-1.771,3.097-3.098,3.097c-1.771,0.441-3.541,0-4.867-0.44c-1.771-0.444-1.771-1.33-1.771-2.656
		c0.444-1.327,0.444-4.424,0.444-6.194c0-1.327,0-2.653-1.327-3.982c0,0,0.883,2.655-0.444,7.965
		c-0.882,3.538-0.882,4.424-0.438,4.868c0.438,0.882,2.209,0.882,3.535,0.882c3.541,0,7.965,0.886,8.854,2.656
		c0.438,0.885,0,1.771-0.889,1.771c-1.326,0.441-3.098-0.444-3.985-0.886c-2.653-0.885-5.306-0.444-7.515,0.441
		c-0.444,0.444-1.333,0.444-1.777,0.444C510.105,141.072,509.217,140.628,509.217,138.86L509.217,138.86z"/>
	<path fill="#FFFFFF" d="M526.479,133.107c-0.444,0-2.659,0.885-2.215-0.886c0-0.885,1.326-2.212,2.215-2.652
		c1.32,0,2.209,0.44,2.653,0.44c0.444,0.444,0.444,0.444-0.444,0.444C527.8,130.896,526.918,132.222,526.479,133.107
		L526.479,133.107z"/>
	<path fill="#FFFFFF" d="M528.244,127.357c-0.444-0.444-2.209-1.33-3.541-0.444c-1.32,0.885-0.883,2.212-0.438,3.541
		c0,0,0.883-1.329,2.653-1.329c0,0,0-0.441,0.438-0.886C528.244,127.798,528.688,127.798,528.244,127.357L528.244,127.357z"/>
	<path fill="#FFFFFF" d="M531.342,128.239c0-0.441-0.889-0.882-1.765-0.441c-0.444,0-0.889,0.886-1.333,1.327
		c0,0,0.889,0,1.333,0.444C529.133,130.01,530.015,128.684,531.342,128.239L531.342,128.239z"/>
	<path fill="#FFFFFF" d="M526.479,126.027c0.438-1.326,1.765-1.768,2.653-1.768c0.444,0,1.32,0.441,1.765,0.886
		c0,0-0.444,0-1.32,0.882c-0.444,0.444-0.889,1.33-0.889,1.33S527.8,126.027,526.479,126.027L526.479,126.027z"/>
	<path fill="#FFFFFF" d="M527.355,133.548c0.444-0.44,1.333-1.326,1.777-1.326c0.882,0,1.32,0,1.765,0.886
		c0,0-1.32,0.44-1.765,1.771C529.577,134.434,528.688,133.548,527.355,133.548L527.355,133.548z"/>
	<path fill="#FFFFFF" d="M484.008,147.708c-0.444-0.886-0.444-2.212-0.444-3.983c0-3.097,0-6.635,1.32-10.177
		c0.889-3.538,1.333-3.979,0.444-4.864c-0.444-0.444-1.32-0.886-2.652-0.886c-0.889,0-1.765,0-1.765,0.886
		c-0.889,3.982-0.889,12.389,0,16.813c0.438,0.885,0.438,1.768,0.876,2.652c-1.765,0-3.535,0.444-4.862,0.886
		c-1.326,0.444-1.771,0.444-2.208,0c-0.444-0.441-1.333-0.886-2.215-0.441c-3.098,0.886-1.771,4.868-1.327,6.633
		c0.444,1.776,0.444,3.985,0,8.409c0,3.535,0.444,5.75,0.444,7.076c0.438,3.098,3.535,3.542,5.306,3.542
		c1.771,0,3.098-1.771,3.098-2.209c0-0.889-0.444-0.889-0.889-0.444c-0.438,0.882-0.438-2.215-1.765-2.215
		c-1.332,0-1.771,0.882-2.652,0.444c-1.333-0.444-0.889-3.979-0.444-8.409c0-1.765,0-3.098-0.889-4.862
		c-0.444-0.444-0.882-1.332-0.882-2.652c0-0.889,0-1.333,0.438-1.777c0.444-0.438,0.889-0.882,1.777-0.438
		c0.882,0.438,1.32,0.438,2.208,0.438c0.889,0,2.209-0.438,3.098-0.882c0.889-0.438,1.326-1.327,1.765-1.327
		c0.889-0.44,1.776-0.44,2.221-0.885C484.008,148.593,484.446,148.148,484.008,147.708L484.008,147.708z"/>
	<path fill="#FFFFFF" d="M475.599,168.059c0.883-0.444,1.771-0.889,2.215-0.444c0.883,0,1.32,0.888,1.765,1.771
		c0,0-0.444-1.326,0-2.215c0-0.438,0.889-1.32,2.209-1.765c0,0-2.653,0-3.091-1.333c-0.444-1.32-0.444-3.535-0.444-4.417
		c0-1.333,1.326-2.653,1.771-3.542c0.444-0.443,0.889-0.888,2.209-0.443c1.332,0,4.874,1.332,7.526,1.332
		c2.209-0.444,3.979-1.776,3.979-4.874c-0.444,0.889-0.882,1.777-1.771,1.777c0,0-0.444,1.32-1.771,1.765
		c-1.327,0.443-2.653,0-3.091,0c0.876,0,1.764-1.327,1.764-1.765c-1.326-0.444-2.208-0.889-3.541-3.542
		c-0.444-0.885-1.32-0.885-1.32-0.885c-1.332,0-2.659,0.885-3.985,2.212c-0.889,0.882-1.326,1.326-1.771,2.215
		c0,0.876-0.438,1.32-0.883,1.765c-0.444,0.443-2.652,0.888-2.215,1.771c0.444,2.215,0,3.979,0,5.75
		C474.717,165.85,474.717,168.502,475.599,168.059L475.599,168.059z"/>
	<path fill="#FFFFFF" d="M480.467,167.17c0.882-1.32,3.097-1.32,4.417-1.32c0.889,0,2.659,0.882,2.659,1.765
		c0,0-0.438,0.444-0.882,1.332c0,0.883,0,1.765,0,1.765s0,0-0.444-0.882c0-0.883-0.444-1.771-1.333-2.215
		c-0.438-0.444-1.765-0.444-1.765,0c0.444,0.444,0.444,1.332,0.444,1.771c0,0.882-0.888,1.771-0.888,1.326
		c0-0.882-1.327-1.765-2.653-1.765C480.467,169.385,480.022,168.059,480.467,167.17L480.467,167.17z"/>
	<path fill="#FFFFFF" d="M488.426,168.502c-0.444,0-0.883,1.765-0.883,2.209c0,0.889,0.438,0.889,0.438,0.889
		c0.444,0,0.888,0.444,0.444,1.326c0,0.438,0,0.883,0.443,0.438c0.444-0.438,0.889-1.765,0.889-2.653
		C489.758,170.267,489.313,168.502,488.426,168.502L488.426,168.502z"/>
	<path fill="#FFFFFF" d="M484.446,168.946c0-0.444,0.882,0.438,0.882,0.883c0.444,0.882,0.444,1.771,0.444,2.652
		c0,0.883-0.444,0.883-0.444,0.444c-0.444-0.882-0.882-1.326-0.882-1.771C484.884,170.711,484.884,169.829,484.446,168.946
		L484.446,168.946z"/>
	<path fill="#FFFFFF" d="M480.911,170.267c0.876,0.444,1.32,1.777,1.32,2.215c0,0.444,0,0.883-0.444,1.327
		c-0.438,0.444-0.438,0.444-0.438-0.444c0-0.438-0.438-0.883-0.438-1.32C480.911,172.044,481.349,171.6,480.911,170.267
		L480.911,170.267z"/>
	<polygon fill="#FFFFFF" points="494.176,51.261 492.855,51.261 492.855,55.243 494.176,55.243 494.62,51.261 	"/>
	<polygon fill="#FFFFFF" points="496.835,51.702 495.508,55.243 496.835,56.126 498.605,52.146 496.835,51.702 	"/>
	<polygon fill="#FFFFFF" points="500.37,53.473 497.717,56.569 498.605,57.455 501.702,54.799 500.37,53.473 	"/>
	<polygon fill="#FFFFFF" points="503.029,56.569 499.487,58.341 499.932,59.667 503.911,57.896 503.029,56.126 	"/>
	<polygon fill="#FFFFFF" points="504.355,60.108 500.37,60.552 500.37,61.879 504.8,61.435 504.355,60.108 	"/>
	<polygon fill="#FFFFFF" points="500.37,63.646 500.37,64.976 504.8,64.976 504.8,63.205 500.37,63.205 	"/>
	<polygon fill="#FFFFFF" points="490.196,51.702 488.869,52.146 490.196,56.126 491.522,55.243 490.196,51.702 	"/>
	<polygon fill="#FFFFFF" points="486.661,53.473 485.328,54.799 488.426,57.455 489.313,56.569 486.661,53.473 	"/>
	<polygon fill="#FFFFFF" points="484.008,56.569 483.119,57.896 487.105,59.667 487.981,58.341 484.008,56.126 	"/>
	<polygon fill="#FFFFFF" points="482.676,60.108 482.231,61.435 486.661,61.879 486.661,60.552 482.676,60.108 	"/>
	<polygon fill="#FFFFFF" points="486.661,63.205 482.231,63.205 482.231,64.976 486.661,64.976 486.661,63.205 	"/>
	<path fill="#FFFFFF" d="M496.391,62.764C495.952,62.32,495.952,62.32,496.391,62.764c-0.438,0.883-0.883,1.327-1.327,1.768
		c-0.443,0.444-1.326,0.886-1.326,1.771c0,0.885,0,1.326,0,2.211c0,0.886,0.883,1.327,1.326,1.327c0.889,0,1.771-0.441,1.771-2.653
		C497.272,64.976,496.835,63.205,496.391,62.764L496.391,62.764z"/>
	<path fill="#FFFFFF" d="M499.487,61.879c-0.438,0.441-1.326,0.441-2.215,0.441c-0.438,0-0.438,0-0.438,0.443
		c0.438,0.441,1.326,1.768,1.326,3.979c0,0.444,0,0.886,0,0.886c0,0.444,0.444,0,0.444,0c0.444,0,1.765-1.326,1.765-3.982
		C499.932,60.993,499.487,61.879,499.487,61.879L499.487,61.879z"/>
	<path fill="#FFFFFF" d="M490.641,62.764C491.078,62.32,491.078,62.32,490.641,62.764c0.438,0.883,0.882,1.327,1.326,1.768
		c0.889,0.444,1.326,0.886,1.326,1.771c0,0.885,0,1.326,0,2.211c0,0.886-0.882,1.327-1.326,1.327c-0.889,0-1.771-0.441-1.771-2.653
		C489.758,64.976,490.196,63.205,490.641,62.764L490.641,62.764z"/>
	<path fill="#FFFFFF" d="M493.737,63.205h-1.771c0,0-0.444,0-0.444-0.441v-2.655c0,0,0-0.441-0.444-0.441h-3.097c0,0,0,0,0-0.444
		c0.888-2.212,3.097-3.979,5.756-3.979c2.653,0,4.868,1.768,5.75,3.979v0.444h-3.097c0,0-0.438,0-0.438,0.441v2.655
		c0,0,0,0.441-0.444,0.441H493.737L493.737,63.205z"/>
	<path fill="#FFFFFF" d="M487.543,61.879c0.438,0.441,1.326,0.441,2.215,0.441c0.438,0,0.438,0,0.438,0.443
		c-0.438,0.441-1.327,1.768-1.327,3.979c0,0.444,0,0.886,0,0.886c0,0.444-0.443,0-0.443,0c-0.444,0-1.765-1.326-1.765-3.982
		C487.105,60.993,487.543,61.879,487.543,61.879L487.543,61.879z"/>
	<path fill="#FFFFFF" d="M531.785,87.538c-0.888,0.441-2.208,0.886-2.208,0.886c-0.444,0-1.777,0-1.777-0.886
		c0-0.885,0.889-0.885,1.777-0.885C530.015,86.653,530.897,87.097,531.785,87.538L531.785,87.538z"/>
	<path fill="#FFFFFF" d="M488.869,118.507c0,0,0,2.212,0,3.541c0,2.212,0.444,4.424,1.771,4.424c3.097,0,3.535,0.441,3.535,0.441
		c0.444,0,0.888-0.886,0.888-1.768c0-0.444,0-9.292,0-9.736c0-0.44-0.443-0.882-0.443-0.882l0,0v-2.215c0,0-4.424,0.885-7.077-2.212
		c0,0-0.438,0-0.438,0.444c0,0.441,0,1.768-1.333,2.212c0,0,1.333,0.44,2.209,1.771
		C488.426,114.527,488.869,115.854,488.869,118.507L488.869,118.507z"/>
	<path fill="#FFFFFF" d="M491.522,114.969C491.522,114.969,491.967,114.969,491.522,114.969h1.333l0,0v-1.327l0,0h-1.333l0,0
		V114.969L491.522,114.969z"/>
	<path fill="#FFFFFF" d="M491.522,118.065C491.522,118.065,491.967,118.507,491.522,118.065h1.333l0,0v-1.326l0,0h-1.333l0,0
		V118.065L491.522,118.065z"/>
	<path fill="#FFFFFF" d="M491.522,121.163C491.522,121.604,491.967,121.604,491.522,121.163h1.333l0,0v-1.327l0,0h-1.333l0,0
		V121.163L491.522,121.163z"/>
	<path fill="#FFFFFF" d="M491.522,124.701C491.522,124.701,491.967,124.701,491.522,124.701h1.333l0,0v-1.326l0,0h-1.333l0,0
		V124.701L491.522,124.701z"/>
	<path fill="#FFFFFF" d="M477.813,152.572c-0.889,0.444-1.776,0.444-2.659,0c-0.882-0.444-1.771,0-1.771,0
		c-0.444,0.444,0,1.333,0,1.771c0.444,0.438,0.444,0.883,0.889,1.327c0,0.443,0.444,0.443,0.882,0
		c0.444-0.444,0.883-0.444,0.883-0.444c0.444,0,0.888-0.444,0.888-0.883C477.369,153.905,477.813,153.017,477.813,152.572
		C478.252,152.572,478.252,152.128,477.813,152.572L477.813,152.572z"/>
	<path fill="#FFFFFF" d="M512.314,126.472c-0.438,0.886-1.32,1.768-2.653,2.212c-0.444,0-1.765,0-2.209-0.444
		c0,0,2.209,2.215,2.653,8.406c0,0.886,0,1.329,0,2.215c0,0.441,0,1.768,1.326,1.326c1.327-0.444,3.542-1.326,5.313-1.326
		c2.652,0,5.306,0.882,5.75,1.326c0.889,0.441,1.326,0,1.326,0c0.444-0.444-1.771-2.212-6.632-2.655c-1.777,0-3.098,0-3.542,0
		c-0.443,0-1.771-0.441-2.215-1.327c-0.438-0.885-0.438-2.212,0-3.982C511.876,130.896,512.314,128.239,512.314,126.472
		L512.314,126.472z"/>
	<path fill="#FFFFFF" d="M545.501,76.479c-1.327,0.44-2.215,1.326-1.771,3.538c0,0,0.888-0.886,2.208-0.441c0.889,0,0,0,0,0
		L545.501,76.479L545.501,76.479z"/>
	<path fill="#FFFFFF" d="M545.057,86.212c-2.653,0.441-3.098,1.326-3.098,1.326s0.444,0.886,3.098,1.326V86.212L545.057,86.212z"/>
	<path fill="#FFFFFF" d="M545.501,95.503c-0.883,0-1.327,0-1.771-0.444c0,0-0.889,2.212,1.771,3.098V95.503L545.501,95.503z"/>
	<path fill="#FFFFFF" d="M545.501,123.375c-0.883,0.44-2.215,0.885-2.215,1.771c0,0,1.332,0,2.215,0.882V123.375L545.501,123.375z"
		/>
	<path fill="#FFFFFF" d="M545.501,126.913c-1.327,0-2.215,0.885-2.659,1.771c0,0,1.332,0,2.215,1.326L545.501,126.913
		L545.501,126.913z"/>
	<path fill="#FFFFFF" d="M545.501,131.337c-1.327,0-2.215,0.885-2.659,1.771c0,0,1.332,0,1.776,1.326L545.501,131.337
		L545.501,131.337z"/>
	<polygon fill="#FFFFFF" points="574.258,66.743 570.271,66.743 570.271,68.514 574.258,68.514 	"/>
	<polygon fill="#FFFFFF" points="570.271,70.285 570.271,72.053 574.701,72.053 574.701,70.285 570.271,70.285 	"/>
	<polygon fill="#FFFFFF" points="570.271,76.92 570.271,78.691 592.84,78.691 592.84,76.92 570.271,76.92 	"/>
	<polygon fill="#FFFFFF" points="575.146,73.823 570.271,73.823 570.271,75.149 576.466,75.149 575.146,73.823 	"/>
	<polygon fill="#FFFFFF" points="588.41,66.743 588.41,68.514 592.84,68.514 592.84,66.743 588.41,66.743 	"/>
	<polygon fill="#FFFFFF" points="592.84,70.285 587.973,70.285 587.973,72.053 592.84,72.053 	"/>
	<path fill="#FFFFFF" d="M592.84,80.459h-5.75h0.438c0,0,1.326,0.443,2.215,1.329l0,0h3.097V80.459L592.84,80.459z"/>
	<path fill="#FFFFFF" d="M592.396,87.097V84h-1.327C591.952,84.886,592.396,85.768,592.396,87.097L592.396,87.097z"/>
	<polygon fill="#FFFFFF" points="587.528,73.823 586.202,75.149 592.84,75.149 592.84,73.823 587.528,73.823 	"/>
	<polygon fill="#FFFFFF" points="579.119,74.708 579.119,70.726 578.243,69.841 577.799,70.726 578.243,74.268 	"/>
	<path fill="#FFFFFF" d="M581.334,76.035c0.882-0.441,1.326-1.327,1.326-2.653c0-0.885,0-3.541,0-3.541h-2.652c0,0,0,2.212,0,3.541
		C580.008,74.708,580.451,75.594,581.334,76.035L581.334,76.035z"/>
	<polygon fill="#FFFFFF" points="583.549,74.708 583.549,70.726 584.431,69.841 584.875,70.726 584.431,74.268 	"/>
	<path fill="#FFFFFF" d="M545.057,96.386c0.882,0,1.326-1.327,0.882-2.212l-0.438-0.441c-0.444-0.885-0.444-1.326,0-1.771
		c0,0,0.438,0.444,1.771,0.444c0,0,0,0-0.444,0.441c0,0.443,0.444,0.885,0.889,0.885c0.438,0,1.32-0.441,1.765-1.326
		c0.443-0.444,0.888-0.886,1.332-0.886c1.32-0.444,2.653-0.444,5.307-0.444c1.326,0,3.097-0.44,3.979-0.44
		c0.883-0.441,1.771-0.886,1.771-1.327c0-0.444-1.327-0.885-2.653-1.329c-1.333-0.441-3.541-0.441-5.306-0.883
		c-2.659-0.443-3.098-2.211-3.986-3.541c-0.443-1.326-1.771-1.768-2.652-1.768c-0.444,0-1.333,0-1.333,0.886
		c0,0.44,0.444,0.44,0.444,0.44c-0.882-0.44-1.765,0.441-1.765,0.441c0-0.441-0.444-0.882,0-1.768
		c0.438-0.444,0.438-0.444,0.438-0.886c0.444-0.443,0-1.771-0.883-1.771c-0.888,0-0.888,0.444-0.888,0.444
		c0-0.885,0.444-1.329,1.771-1.771c3.541-0.886,3.541,2.212,3.541,2.212c0.883,0.441,1.771,0.885,2.215,1.771
		c0.438,0.886,0.876,1.768,1.32,2.653c0.444,0.885,1.777,1.326,4.43,1.326c2.209,0,5.75-0.441,7.515-1.326
		c2.215-0.441,3.986,0,4.43,1.326c0.444,1.329,0.444,3.097-0.443,4.868c-0.889,1.326-2.653,2.655-7.521,2.655
		c-1.326,0-3.541,0-5.312-0.443c-2.209-0.441-3.098-0.441-3.979,0c-0.438,0.443-1.771,0.885-2.653,2.655
		c0,0-0.882,2.653-3.097,2.653c-0.883,0-1.327-0.441-1.771-1.326C544.174,95.944,544.618,96.386,545.057,96.386L545.057,96.386z"/>
	<path fill="#FFFFFF" d="M547.716,87.538c0-0.885-1.333-1.326-2.215-1.326c0-0.444,0-0.444,0-0.886c0-0.885,0.882-1.771,2.652-1.771
		s3.535,1.33,3.535,3.982c0,3.098-1.765,3.982-3.535,3.982c-1.326,0-2.215-0.885-2.652-1.771c0-0.441,0-0.886,0-0.886
		C546.383,88.864,547.716,88.424,547.716,87.538L547.716,87.538z"/>
	<path fill="#FFFFFF" d="M584.875,88.424c0-1.327-0.882-1.327-1.771-1.327c-1.326-0.443-2.209-0.885-3.097-1.771
		c-0.889-0.885-1.765-1.771-3.098-1.771c-1.326,0-2.209,0-3.985,0.886c-1.32,0.444-3.091,1.326-2.653,2.655
		c0,1.327,0,2.653-0.438,3.098c-0.444,0.441-0.444,1.768,0.882,2.212c0.889,0.441,2.209,0.441,3.985,0.441
		c3.098,0,6.194-1.327,8.403-2.212C583.993,89.75,584.875,89.309,584.875,88.424L584.875,88.424z"/>
	<path fill="#FFFFFF" d="M578.243,93.291c-0.444,0-0.444,0.441-0.444,1.327c0,0.44,0.444,2.212,3.535,4.864
		c0.882,0.886,2.659,2.212,4.424,2.212c1.332,0,1.771-0.882,1.771-1.326c0,0,0-0.886,0-1.326c0-0.444-0.438-1.327-0.882-1.327
		c-1.333-0.444-3.986-1.329-4.868-3.541c-0.444-0.441-0.883-1.326-1.771-0.883C579.563,92.848,579.119,93.291,578.243,93.291
		L578.243,93.291z"/>
	<path fill="#FFFFFF" d="M575.146,82.229c3.535-0.441,3.974,0.444,6.188,2.212c1.771,1.326,3.097,1.771,3.097,1.326
		c0.444-0.882-0.882-1.768-1.326-2.212c-0.444-0.441,0-0.882,0.889-0.441c0.882,0.441,2.653,2.212,3.097,3.982l0,0l0,0
		c0,0.441,0.438,2.212-0.888,3.539c-0.889,0.44-1.327,0.885-2.209,1.326c-0.889,0.444-0.889,1.329-0.444,2.212
		c0.882,0.885,2.209,2.212,3.979,2.656c0.882,0.44,1.771,0.885,1.771,2.212c0,2.652,0,10.617,0,11.059
		c0,0.886,0.444,1.771,1.771,1.771c1.327,0,1.771,0.441,1.771-0.885c0-0.886,0-15.928,0-17.695c0-7.523-4.43-10.617-5.75-11.503
		c-2.659-1.329-7.526-2.212-12.389-1.329c-3.097,0.443-5.312,1.771-6.194,3.097c0,0,0.883,0.444,1.765,1.33
		C569.834,84.441,571.604,82.674,575.146,82.229L575.146,82.229z"/>
	<path fill="#FFFFFF" d="M570.716,96.386c0,0,2.653,0,3.985-1.327c0.444-0.44,0.444-1.326-0.443-1.326c-0.889,0-2.209,0-3.542,0
		V96.386L570.716,96.386z"/>
	<path fill="#FFFFFF" d="M571.16,97.271c0,0.444,0.444,0.886,0.889,1.327c0,0,0.438,0,1.32,0c0.444,0,0.889,0,1.776-0.441
		c0.438-0.441,1.32-1.326,1.765-1.771c0.444-0.441,0.444-0.883,0.444-1.327c-0.444-0.44-0.889-0.44-1.333,0
		c-0.876,0.444-1.32,0.886-2.208,1.327c-0.889,0.444-1.327,0.444-2.209,0.444L571.16,97.271L571.16,97.271z"/>
	<path fill="#FFFFFF" d="M572.925,102.139c1.333,0.441,2.659-0.444,3.097-0.886c0.444-0.44,2.222-1.771,2.659-2.211
		c0.438-0.444,0.438-1.327,0.438-1.771c-0.438-0.44-0.876-0.44-1.32-0.44c-0.444,0.44-1.333,1.326-1.777,1.326
		c-0.876,0.441-1.764,0.886-2.208,0.886c0,0-0.889,0-1.327,0c-0.438,0-0.882,0-0.438,0.885
		C571.604,100.813,572.049,101.694,572.925,102.139L572.925,102.139z"/>
	<path fill="#FFFFFF" d="M574.258,103.024c0.888,0,1.764-0.444,2.208-0.886c0.889-0.444,2.215-1.771,3.098-2.212
		c0.444-0.444,1.332-0.444,1.332,0c0.883,1.326-1.776,2.653-3.097,3.538c-1.333,0.886-2.215,0.886-3.541,0.886
		c-0.889,0-1.771-0.886-1.771-1.771C572.925,103.024,573.369,103.024,574.258,103.024L574.258,103.024z"/>
	<path fill="#FFFFFF" d="M583.104,102.139c-0.444-0.444-1.326-0.444-1.771,0c-0.438,0.441-2.653,2.212-3.535,2.653
		c-1.333,0.443-1.777,0.885-3.098,0.885c0,0,0,0.444,0.444,1.327c0.438,0.443,1.765,0.443,3.098,0.443
		c1.32-0.443,2.652-0.885,3.973-1.771C582.66,103.909,583.993,102.58,583.104,102.139L583.104,102.139z"/>
	<path fill="#FFFFFF" d="M587.09,103.024c0-0.444,0-0.444-0.443-0.444c-0.444,0-0.444,0-0.889,0s-0.883,0-1.327,0.444
		c-0.882,1.326-1.771,2.211-3.097,3.097c-0.883,0.883-3.091,1.326-4.424,1.326c0,0-0.444,0.441,0,0.886
		c0.444,0.441,1.771,0.441,2.653,0.441c0.888,0,3.097-0.886,4.867-2.653C585.758,105.235,586.646,104.351,587.09,103.024
		L587.09,103.024z"/>
	<path fill="#FFFFFF" d="M587.973,104.792c-0.444,0-0.883,0-1.326,0.885c-0.444,0.444-1.771,2.212-3.542,3.098
		c-1.326,0.885-3.541,1.326-3.985,1.326c-0.876,0-0.438,0.444,0.444,0.444c0.888,0.441,2.652,0.441,4.43,0
		c1.32-0.444,2.653-1.33,3.535-2.212c0.444-0.886,0.882-0.886,0.882-1.771C587.973,106.563,587.973,105.235,587.973,104.792
		L587.973,104.792z"/>
	<path fill="#FFFFFF" d="M568.063,95.503c0,0,0.443-1.329,2.208-2.212c0,0-0.882-0.443-1.32-1.329c0,0-0.888,1.329-3.985,1.771
		C564.521,93.732,566.736,94.174,568.063,95.503L568.063,95.503z"/>
	<path fill="#FFFFFF" d="M593.284,114.527c0-1.771-1.332-1.771-2.215-1.771c-0.882,0-2.215,0.44-2.659,1.326
		c-0.882,0.886-1.32,1.771-1.32,4.868c0,3.097,0.438,8.847-2.659,8.847c-3.097,0-3.979,0.441-4.423,2.656
		c-0.889,2.212-0.889,5.75-0.889,10.618c0,4.424,2.215,13.271,5.756,13.271c3.098,0,5.75-4.424,5.75-9.732
		c0.444-5.75-0.882-8.406-1.771-11.063c-0.882-2.211-0.882-3.538,0-4.423c0.444-0.886,1.333-0.886,2.653-1.327
		c0.889-0.44,2.215-0.44,2.215-2.652C593.284,122.048,593.284,114.527,593.284,114.527L593.284,114.527z"/>
	<path fill="#FFFFFF" d="M595.049,127.357v-7.08c0.889,1.771,3.985,7.08,10.18,7.08c1.32,0,4.418-0.444,7.077-3.098
		c2.652-2.656,3.979-6.639,3.979-11.503v-3.982c0-11.504,0-24.333,2.652-30.527c1.333-2.653,3.098-6.636,7.527-6.636
		c2.209,0,3.535,1.326,3.535,3.097c0,1.771-1.326,3.098-3.097,3.098c-0.438,0-0.883,0-0.883,0l0,0l0,0l0,0
		c-1.771-0.444-3.097-0.444-4.43,1.771c-3.097,5.75-2.653,19.021-2.653,29.198v3.982c0,13.271-8.402,16.813-13.709,16.813
		c-2.658,0-4.43-0.444-6.194-1.33c-1.332-0.441-2.215-0.441-2.652-0.441C595.493,128.239,595.049,127.798,595.049,127.357
		L595.049,127.357z"/>
	<path fill="#FFFFFF" d="M580.008,127.357c-1.327,0-2.209-0.444-2.209-2.212c0-1.771,0-9.736,0-10.618c0-0.886,0-1.33,0.444-1.771
		c0.438-0.444,0.876-0.886,0.876-1.771h0.889v2.211c0,0-0.889,0.444-0.889,1.771c0,1.326,0,9.732,0,10.617
		C578.681,126.472,579.563,126.913,580.008,127.357L580.008,127.357z"/>
	<path fill="#FFFFFF" d="M576.91,121.604c0-1.768-2.652-2.652-5.306-2.652c-3.098,0-5.75,0.44-7.527,1.768
		c-1.32,1.329-1.765,3.097-1.32,4.867c0.438,1.327,1.765,2.212,2.653,2.212c0.882,0,1.765,0,2.653-0.885
		c0.888-0.886,2.652-1.768,4.861-1.768C574.701,125.146,577.354,125.146,576.91,121.604L576.91,121.604z"/>
	<path fill="#FFFFFF" d="M565.854,138.86c0-1.329,0-6.639,1.765-9.291c0.888-1.33,2.652-3.542,6.639-3.542
		c3.985,0,4.423,2.656,4.423,3.982c-0.438,3.098-2.215,3.982-3.535,3.982c-1.332,0-3.097-0.444-4.43-1.326
		c-1.326-0.444-1.326,0-1.326,0.882c-0.438,3.542,0.444,7.08,0.444,7.08c0,0.886,0,1.771-0.444,2.212
		c-0.438,0.444-1.326,0.444-1.771,0c-0.883-0.441-1.765,0-2.653,0c-1.326,0-2.653-0.441-4.868-0.441s-6.632,0.441-9.285,0.441
		c-2.215,0-3.541-1.768-3.985-2.653c-0.444-1.326-0.444-3.541,0.444-4.423c1.326-1.33,2.652-0.886,3.097-0.886
		c0.883,0,1.32,0,1.765,0c0.444-0.444,0.444-1.33,0.444-1.771c0,0.885,1.771,3.097,3.098,3.097c1.771,0.441,3.541,0,4.867-0.44
		c1.771-0.444,1.771-1.33,1.771-2.656c-0.443-1.327-0.443-4.424-0.443-6.194c0-1.327,0-2.653,1.326-3.982
		c0,0-0.883,2.655,0.444,7.965c0.882,3.538,0.882,4.424,0.438,4.868c-0.438,0.882-2.208,0.882-3.535,0.882
		c-3.541,0-7.965,0.886-8.854,2.656c-0.438,0.885,0,1.771,0.889,1.771c1.333,0.441,3.098-0.444,3.985-0.886
		c2.653-0.885,5.307-0.444,7.515,0.441c0.444,0.444,1.333,0.444,1.777,0.444C564.966,141.072,565.854,140.628,565.854,138.86
		L565.854,138.86z"/>
	<path fill="#FFFFFF" d="M548.598,133.107c0.438,0,2.653,0.885,2.215-0.886c0-0.885-1.332-2.212-2.215-2.652
		c-1.326,0-2.215,0.44-2.659,0.44c-0.438,0.444-0.438,0.444,0.444,0.444C547.271,130.896,548.153,132.222,548.598,133.107
		L548.598,133.107z"/>
	<path fill="#FFFFFF" d="M546.827,127.357c0.444-0.444,2.209-1.33,3.541-0.444c1.32,0.885,0.883,2.212,0.444,3.541
		c0,0-0.889-1.329-2.659-1.329c0,0,0-0.441-0.438-0.886C546.827,127.798,546.383,127.798,546.827,127.357L546.827,127.357z"/>
	<path fill="#FFFFFF" d="M543.73,128.239c0-0.441,0.888-0.882,1.771-0.441c0.438,0,0.882,0.886,1.326,1.327c0,0-0.889,0-1.326,0.444
		C545.501,130.01,545.057,128.684,543.73,128.239L543.73,128.239z"/>
	<path fill="#FFFFFF" d="M548.598,126.027c-0.444-1.326-1.771-1.768-2.659-1.768c-0.438,0-1.32,0.441-1.765,0.886
		c0,0,0.444,0,1.327,0.882c0.438,0.444,0.882,1.33,0.882,1.33S546.827,126.027,548.598,126.027L548.598,126.027z"/>
	<path fill="#FFFFFF" d="M547.271,133.548c-0.444-0.44-1.333-1.326-1.771-1.326c-0.883,0-1.327,0-1.771,0.886
		c0,0,1.326,0.44,1.771,1.771C545.501,134.434,546.383,133.548,547.271,133.548L547.271,133.548z"/>
	<path fill="#FFFFFF" d="M591.508,148.593c0.444,0,1.332,0,2.215,0.886c0.438,0,0.882,0.885,1.771,1.329
		c0.889,0.438,1.765,0.883,3.098,0.883c0.888,0,1.326,0,2.208-0.444c0.889,0,1.333,0,1.771,0.444
		c0.443,0.438,0.443,1.326,0.443,1.771c0,0.882-0.443,1.765-0.882,2.652c-0.889,1.327-0.889,3.098-0.889,4.862
		c0,4.43,0.444,7.526-0.444,8.409c-0.882,0.444-1.765-0.438-2.652-0.438c-1.327,0-1.327,3.098-1.765,2.209
		c-0.444-0.889-1.333-0.444-0.889,0.444c0,0.882,1.326,2.209,3.098,2.209c1.764,0,4.423-0.444,5.306-3.542
		c0.444-1.32,0.444-3.535,0.444-7.076c0-3.979,0-6.633,0-8.409c0.444-1.765,1.771-5.747-1.327-6.633
		c-0.882-0.44-1.771,0-2.215,0.444c-0.444,0.441-1.32,0.441-2.208,0c-0.889-0.444-2.653-0.885-4.868-0.885
		c0.438-0.444,0.438-1.327,0.882-2.656c0.889-4.424,0.889-12.386,0-16.813c0-0.882-0.882-0.882-1.765-0.882
		c-1.332,0-2.215,0.44-2.652,0.882c-0.889,0.886-0.444,1.771,0.438,4.868c1.327,3.538,1.327,7.079,1.327,10.177
		c0,1.768-0.444,3.097-0.444,3.979C590.625,148.148,590.625,148.593,591.508,148.593L591.508,148.593z"/>
	<path fill="#FFFFFF" d="M599.479,168.059c-0.888-0.444-1.776-0.889-2.221-0.444c-0.876,0-1.32,0.888-1.765,1.771
		c0,0,0.444-1.326,0-2.215c0-0.438-0.889-1.32-2.209-1.765c0,0,2.653,0,3.098-1.333c0.438-1.32,0.438-3.535,0.438-4.417
		c0-1.333-1.326-2.653-1.771-3.542c-0.444-0.443-0.882-0.888-2.209-0.443c-1.332,0-4.867,1.332-7.526,1.332
		c-2.209-0.444-3.979-1.776-3.979-4.874c0.444,0.889,0.882,1.777,1.771,1.777c0,0,0.444,1.32,1.771,1.765
		c1.327,0.443,2.653,0,3.098,0c-0.883,0-1.771-1.327-1.771-1.765c1.326-0.444,2.208-0.889,3.541-3.542
		c0.444-0.885,1.326-0.885,1.326-0.885c1.327,0,2.653,0.885,3.979,2.212c0.889,0.882,1.333,1.326,1.771,2.215
		c0,0.876,0.438,1.32,0.883,1.765c0.444,0.443,2.652,0.888,2.215,1.771c-0.438,2.215,0,3.979,0,5.75
		C599.917,165.85,600.354,168.502,599.479,168.059L599.479,168.059z"/>
	<path fill="#FFFFFF" d="M594.604,167.17c-0.882-1.32-3.097-1.32-4.417-1.32c-0.889,0-2.659,0.882-2.659,1.765
		c0,0,0.444,0.444,0.882,1.332c0,0.883,0,1.765,0,1.765s0,0,0.444-0.882c0-0.883,0.444-1.771,1.333-2.215
		c0.438-0.444,1.765-0.444,1.765,0c-0.444,0.444-0.444,1.332-0.444,1.771c0,0.882,0.889,1.771,0.889,1.326
		c0-0.882,1.326-1.765,2.652-1.765C594.604,169.385,595.049,168.059,594.604,167.17L594.604,167.17z"/>
	<path fill="#FFFFFF" d="M586.646,168.502c0.443,0,0.882,1.765,0.882,2.209c0,0.889-0.438,0.889-0.438,0.889
		c-0.443,0-0.888,0.444-0.443,1.326c0,0.438,0,0.883-0.444,0.438c-0.444-0.438-0.889-1.765-0.889-2.653
		C584.875,170.267,585.758,168.502,586.646,168.502L586.646,168.502z"/>
	<path fill="#FFFFFF" d="M590.188,168.946c0-0.444-0.889,0.438-0.889,0.883c-0.444,0.882-0.444,1.771-0.444,2.652
		c0,0.883,0.444,0.883,0.444,0.444c0.444-0.882,0.889-1.326,0.889-1.771S590.188,169.829,590.188,168.946L590.188,168.946z"/>
	<path fill="#FFFFFF" d="M594.16,170.267c-0.876,0.444-1.32,1.777-1.32,2.215c0,0.444,0,0.883,0.444,1.327
		c0.438,0.444,0.438,0.444,0.438-0.444c0-0.438,0.444-0.883,0.444-1.32C594.16,172.044,593.723,171.6,594.16,170.267L594.16,170.267
		z"/>
	<polygon fill="#FFFFFF" points="580.451,51.261 580.451,55.243 582.216,55.243 582.216,51.261 	"/>
	<polygon fill="#FFFFFF" points="578.243,51.702 576.466,52.146 578.243,56.126 579.563,55.243 578.243,51.702 	"/>
	<polygon fill="#FFFFFF" points="574.258,53.473 573.369,54.799 576.021,57.455 577.354,56.569 	"/>
	<polygon fill="#FFFFFF" points="572.049,56.126 571.16,57.896 574.701,59.667 575.584,58.341 572.049,56.569 	"/>
	<polygon fill="#FFFFFF" points="570.716,60.108 570.271,61.435 574.258,61.879 574.701,60.552 570.716,60.108 	"/>
	<polygon fill="#FFFFFF" points="574.258,63.205 570.271,63.205 570.271,64.976 574.258,64.976 	"/>
	<polygon fill="#FFFFFF" points="584.431,51.702 583.104,55.243 584.431,56.126 586.202,52.146 584.875,51.702 	"/>
	<polygon fill="#FFFFFF" points="588.41,53.473 585.313,56.569 586.646,57.455 589.743,54.799 588.41,53.473 	"/>
	<polygon fill="#FFFFFF" points="590.625,56.126 587.09,58.341 587.973,59.667 591.508,57.896 	"/>
	<polygon fill="#FFFFFF" points="592.396,60.108 587.973,60.552 588.41,61.879 592.396,61.435 592.396,60.108 	"/>
	<polygon fill="#FFFFFF" points="588.41,63.205 588.41,64.976 592.84,64.976 592.84,63.205 588.41,63.205 	"/>
	<path fill="#FFFFFF" d="M578.681,62.764C578.681,62.32,578.681,62.32,578.681,62.764c0.438,0.883,0.883,1.327,1.327,1.768
		c0.443,0.444,1.326,0.886,1.326,1.771c0,0.885,0,1.326,0,2.211c0,0.886-0.883,1.327-1.326,1.327c-0.889,0-1.765-0.441-1.765-2.653
		C577.354,64.976,577.799,63.205,578.681,62.764L578.681,62.764z"/>
	<path fill="#FFFFFF" d="M575.584,61.879c0.438,0.441,1.326,0.441,2.215,0.441c0.444,0,0.444,0,0.444,0.443
		c-0.444,0.441-1.333,1.768-1.333,3.979c0,0.444,0,0.886,0,0.886c0,0.444-0.444,0-0.444,0c-0.444,0-1.765-1.326-1.765-3.982
		C574.701,60.993,575.584,61.879,575.584,61.879L575.584,61.879z"/>
	<path fill="#FFFFFF" d="M583.993,62.764C583.993,62.32,583.993,62.32,583.993,62.764c-0.444,0.883-0.889,1.327-1.333,1.768
		c-0.882,0.444-1.326,0.886-1.326,1.771c0,0.885,0,1.326,0,2.211c0,0.886,0.882,1.327,1.326,1.327c0.889,0,1.771-0.441,1.771-2.653
		C585.313,64.976,584.875,63.205,583.993,62.764L583.993,62.764z"/>
	<path fill="#FFFFFF" d="M581.334,63.205h1.771c0,0,0.444,0,0.444-0.441v-2.655c0,0,0-0.441,0.444-0.441h3.097c0,0,0,0,0-0.444
		c-0.888-2.212-3.097-3.979-5.756-3.979c-2.653,0-4.868,1.768-5.75,3.979v0.444h3.097c0,0,0.438,0,0.438,0.441v2.655
		c0,0,0,0.441,0.444,0.441H581.334L581.334,63.205z"/>
	<path fill="#FFFFFF" d="M587.09,61.879c-0.443,0.441-1.332,0.441-2.215,0.441c-0.444,0-0.444,0-0.444,0.443
		c0.444,0.441,1.327,1.768,1.327,3.979c0,0.444,0,0.886,0,0.886c0,0.444,0.444,0,0.444,0c0.444,0,1.771-1.326,1.771-3.982
		C587.973,60.993,587.09,61.879,587.09,61.879L587.09,61.879z"/>
	<path fill="#FFFFFF" d="M542.842,87.538c0.889,0.441,2.215,0.886,2.215,0.886c0.444,0,1.771,0,1.771-0.886
		c0-0.885-0.889-0.885-1.771-0.885C545.057,86.653,544.174,87.097,542.842,87.538L542.842,87.538z"/>
	<path fill="#FFFFFF" d="M586.202,118.507c0,0,0,2.212,0,3.541c0,2.212-0.444,4.424-1.771,4.424c-3.097,0-3.535,0.441-3.535,0.441
		c-0.444,0-0.888-0.886-0.888-1.768c0-0.444,0-9.292,0-9.736c0-0.44,0.443-0.882,0.443-0.882l0,0v-2.215
		c0,0,4.424,0.885,7.077-2.212c0,0,0.444,0,0.444,0.444c0,0.441,0,1.768,1.326,2.212c0,0-1.326,0.44-2.209,1.771
		C586.646,114.527,586.202,115.854,586.202,118.507L586.202,118.507z"/>
	<path fill="#FFFFFF" d="M583.104,114.969L583.104,114.969h-1.326l0,0v-1.327l0,0h1.326l0,0V114.969L583.104,114.969z"/>
	<path fill="#FFFFFF" d="M583.104,118.065C583.104,118.065,583.104,118.507,583.104,118.065h-1.326l0,0v-1.326l0,0h1.326l0,0
		V118.065L583.104,118.065z"/>
	<path fill="#FFFFFF" d="M583.104,121.163C583.104,121.604,583.104,121.604,583.104,121.163h-1.326l0,0v-1.327l0,0h1.326l0,0
		V121.163L583.104,121.163z"/>
	<path fill="#FFFFFF" d="M583.104,124.701L583.104,124.701h-1.326l0,0v-1.326l0,0h1.326l0,0V124.701L583.104,124.701z"/>
	<path fill="#FFFFFF" d="M596.819,152.572c0.883,0.444,1.771,0.444,2.659,0c0.876-0.444,1.765,0,1.765,0
		c0.444,0.444,0,1.333,0,1.771c-0.444,0.438-0.444,0.883-0.889,1.327c0,0.443-0.438,0.443-0.876,0
		c-0.444-0.444-0.888-0.444-0.888-0.444c-0.444,0-0.889-0.444-0.889-0.883C597.702,153.905,597.258,153.017,596.819,152.572
		C596.382,152.572,596.819,152.128,596.819,152.572L596.819,152.572z"/>
	<path fill="#FFFFFF" d="M562.313,126.472c0.444,0.886,1.327,1.768,2.653,2.212c0.444,0,1.771,0,2.209-0.444
		c0,0-2.209,2.215-2.653,8.406c0,0.886,0,1.329,0,2.215c0,0.441,0,1.768-1.326,1.326c-1.326-0.444-3.535-1.326-5.313-1.326
		c-2.652,0-5.306,0.882-5.75,1.326c-0.882,0.441-1.32,0-1.32,0c-0.444-0.444,1.765-2.212,6.633-2.655c1.771,0,3.097,0,3.535,0
		c0.444,0,1.776-0.441,2.215-1.327c0.444-0.885,0.444-2.212,0-3.982C563.195,130.896,562.757,128.239,562.313,126.472
		L562.313,126.472z"/>
	<path fill="#FFFFFF" d="M514.974,88.864c0,0.444,1.771,1.33,5.312,0.886c0.883,0,2.209,0,2.653,0c0,0-0.444-1.771-0.444-3.097
		c0,0-1.771,0.885-2.653,0.885C518.509,87.979,514.974,88.424,514.974,88.864L514.974,88.864z"/>
	<path fill="#FFFFFF" d="M560.098,88.864c0,0.444-1.771,1.33-5.312,0.886c-0.876,0-2.209,0-2.653,0c0,0,0.444-1.771,0.444-3.097
		c0,0,1.771,0.885,2.653,0.885C556.563,87.979,560.098,88.424,560.098,88.864L560.098,88.864z"/>
	<path fill="#FFFFFF" d="M26.104,107.889V53.473c1.768-0.444,3.979-0.886,7.962-0.886c24.777,0,30.969,17.254,30.969,29.201
		c0,16.81-8.848,26.101-31.854,26.101H26.104L26.104,107.889z M333.136,50.816c4.43,0,8.409,1.771,10.18,5.31l-32.739,99.1
		c-3.538,11.062-7.965,16.818-16.813,17.256v1.327h30.524v-1.327c-5.306,0-10.174-0.882-10.174-8.847
		c0-2.659,1.33-7.521,2.212-10.174l13.712-41.59h33.625l15.485,43.799c0,0,0,0.888,0.444,0.888c1.327,3.979,1.771,6.633,1.771,7.515
		c0,7.972-7.521,7.527-12.826,7.527v1.326h40.695V171.6c-6.194-0.444-10.612-0.889-16.807-18.139L355.26,49.49h-21.68
		L333.136,50.816L333.136,50.816z M331.815,107.889l14.153-43.798h0.444l15.485,43.798H331.815L331.815,107.889z M216.785,107.889
		V55.243c2.212-0.885,6.191-1.771,11.06-1.771c14.601,0,25.219,13.271,25.219,28.315c0,15.927-11.063,23.004-13.716,24.333
		c-2.212,1.326-5.753,2.212-14.159,2.212h-8.403V107.889z M237.136,173.809c2.212,0,16.368,0,24.774-4.862
		c6.636-3.985,16.368-12.833,16.368-27.433c0-9.292-3.979-16.813-10.174-23.007c-7.521-7.077-17.697-8.848-27.871-9.732v-0.441
		c15.041-3.982,26.986-13.274,26.986-29.201s-14.156-30.083-35.837-30.083h-40.701v1.327h1.771c7.077,0,11.944,4.868,11.944,14.156
		v93.791c0,9.736-6.193,13.722-11.503,13.722h-1.771v1.32h46.013V173.809z M229.615,111.871c21.236,0,34.507,10.177,34.507,29.201
		c0,4.424-0.886,11.5-4.864,17.694c-3.983,6.194-11.504,11.5-24.334,11.5c-18.139-0.438-18.139-8.847-18.139-15.041v-43.354H229.615
		L229.615,111.871z M163.692,50.816c-6.19,0-13.271,3.098-13.271,13.715v94.68c0,10.618,7.962,13.715,13.271,13.715v1.327h-39.815
		v-1.327c6.194,0,13.271-3.097,13.271-13.715v-94.68c0-11.503-7.962-13.715-13.271-13.715V49.49h39.815V50.816L163.692,50.816z
		 M1.771,51.261c4.424,0,11.503,2.653,11.503,13.271v94.235c0,10.618-7.08,13.715-13.274,13.715v1.327h39.819v-1.327
		c-5.309,0-13.715-2.215-13.715-13.715V111.43c8.406,0,19.907,0.441,32.739,22.118L73.885,160.1c0,0,3.097,4.417,4.424,6.632
		c2.652,3.979,3.982,5.313,5.309,7.077h22.563v-1.327c-3.982-0.438-9.732-0.438-21.236-19.909L73.885,131.78
		c-5.31-8.85-11.504-16.812-20.795-21.235v-0.444c18.139-3.097,26.104-15.927,26.104-28.757c0-11.944-7.079-31.41-36.28-31.41H0
		v1.768h1.771V51.261z"/>
</g>
</svg>
