<?xml version="1.0" encoding="utf-8"?>
<!-- Generator: Adobe Illustrator 17.1.0, SVG Export Plug-In . SVG Version: 6.00 Build 0)  -->
<!DOCTYPE svg PUBLIC "-//W3C//DTD SVG 1.1//EN" "http://www.w3.org/Graphics/SVG/1.1/DTD/svg11.dtd">
<svg version="1.1" id="Layer_1" xmlns="http://www.w3.org/2000/svg" xmlns:xlink="http://www.w3.org/1999/xlink" x="0px" y="0px"
	 viewBox="0 0 295.2 60.4" enable-background="new 0 0 295.2 60.4" xml:space="preserve">
<g>
	<path fill="#FFFFFF" d="M11,8.3c6.3,0,9.5,3.8,9.5,10.3V20h-6.1v-1.7c0-2.9-1.2-4.1-3.2-4.1c-2.1,0-3.2,1.1-3.2,4.1
		c0,3,1.3,5.2,5.5,8.9c5.4,4.8,7.1,8.2,7.1,12.9c0,6.6-3.3,10.3-9.6,10.3s-9.6-3.8-9.6-10.3v-2.5h6.1v2.9c0,2.9,1.3,4,3.3,4
		c2.1,0,3.3-1.1,3.3-4c0-3-1.3-5.2-5.5-8.9c-5.4-4.8-7.1-8.2-7.1-12.9C1.5,12.1,4.8,8.3,11,8.3z"/>
	<path fill="#FFFFFF" d="M21.9,8.8h20v5.9h-6.8v35.2h-6.5V14.7h-6.8V8.8z"/>
	<path fill="#FFFFFF" d="M57.6,49.9c-0.4-1.1-0.6-1.7-0.6-5.1v-6.5c0-3.8-1.3-5.2-4.2-5.2h-2.2v16.7h-6.5V8.8h9.8
		c6.7,0,9.6,3.1,9.6,9.5v3.2c0,4.2-1.4,6.9-4.2,8.3v0.1c3.2,1.4,4.3,4.4,4.3,8.7v6.3c0,2,0.1,3.5,0.7,5H57.6z M50.5,14.7v12.6H53
		c2.4,0,3.9-1.1,3.9-4.3v-4.1c0-2.9-1-4.2-3.3-4.2H50.5z"/>
	<path fill="#FFFFFF" d="M67.1,8.8h6.5v41.1h-6.5V8.8z"/>
	<path fill="#FFFFFF" d="M83.5,20.1h-0.1v29.8h-5.8V8.8h8.1l6.5,24.6h0.1V8.8h5.8v41.1h-6.6L83.5,20.1z"/>
	<path fill="#FFFFFF" d="M111.8,27h9v13c0,6.6-3.3,10.3-9.6,10.3c-6.3,0-9.6-3.8-9.6-10.3V18.7c0-6.6,3.3-10.3,9.6-10.3
		c6.3,0,9.6,3.8,9.6,10.3v4h-6.1v-4.4c0-2.9-1.3-4.1-3.3-4.1c-2.1,0-3.3,1.1-3.3,4.1v22.2c0,2.9,1.3,4,3.3,4c2.1,0,3.3-1.1,3.3-4
		v-7.6h-2.9V27z"/>
	<path fill="#FFFFFF" d="M131.1,8.8h20v5.9h-6.8v35.2h-6.5V14.7h-6.8V8.8z"/>
	<path fill="#FFFFFF" d="M159.8,49.9h-6.5V8.8h6.5v17.6h7.3V8.8h6.6v41.1h-6.6V32.3h-7.3V49.9z"/>
	<path fill="#FFFFFF" d="M184.3,26.1h8.9V32h-8.9v12h11.2v5.9h-17.6V8.8h17.6v5.9h-11.2V26.1z"/>
	<path fill="#FFFFFF" d="M198.3,18.7c0-6.6,3.5-10.3,9.8-10.3s9.8,3.8,9.8,10.3v21.4c0,6.6-3.5,10.3-9.8,10.3s-9.8-3.8-9.8-10.3
		V18.7z M204.8,40.5c0,2.9,1.3,4.1,3.3,4.1c2.1,0,3.3-1.1,3.3-4.1V18.3c0-2.9-1.3-4.1-3.3-4.1c-2.1,0-3.3,1.1-3.3,4.1V40.5z"/>
	<path fill="#FFFFFF" d="M235,49.9c-0.4-1.1-0.6-1.7-0.6-5.1v-6.5c0-3.8-1.3-5.2-4.2-5.2H228v16.7h-6.5V8.8h9.8
		c6.7,0,9.6,3.1,9.6,9.5v3.2c0,4.2-1.4,6.9-4.2,8.3v0.1c3.2,1.4,4.3,4.4,4.3,8.7v6.3c0,2,0.1,3.5,0.7,5H235z M228,14.7v12.6h2.5
		c2.4,0,3.9-1.1,3.9-4.3v-4.1c0-2.9-1-4.2-3.3-4.2H228z"/>
	<path fill="#FFFFFF" d="M244.5,8.8h6.5v41.1h-6.5V8.8z"/>
	<path fill="#FFFFFF" d="M261.6,26.1h8.9V32h-8.9v12h11.2v5.9h-17.6V8.8h17.6v5.9h-11.2V26.1z"/>
	<path fill="#FFFFFF" d="M284.8,8.3c6.3,0,9.5,3.8,9.5,10.3V20h-6.1v-1.7c0-2.9-1.2-4.1-3.2-4.1c-2.1,0-3.2,1.1-3.2,4.1
		c0,3,1.3,5.2,5.5,8.9c5.4,4.8,7.1,8.2,7.1,12.9c0,6.6-3.3,10.3-9.6,10.3s-9.6-3.8-9.6-10.3v-2.5h6.1v2.9c0,2.9,1.3,4,3.3,4
		c2.1,0,3.3-1.1,3.3-4c0-3-1.3-5.2-5.5-8.9c-5.4-4.8-7.1-8.2-7.1-12.9C275.3,12.1,278.5,8.3,284.8,8.3z"/>
</g>
</svg>
