<?xml version="1.0" encoding="utf-8"?>
<!-- Generator: Adobe Illustrator 18.1.0, SVG Export Plug-In . SVG Version: 6.00 Build 0)  -->
<svg version="1.1" id="Layer_1" xmlns="http://www.w3.org/2000/svg" xmlns:xlink="http://www.w3.org/1999/xlink" x="0px" y="0px"
	 width="98px" height="51px" viewBox="0 0 98 51" enable-background="new 0 0 98 51" xml:space="preserve">
<g>
	<g>
		<rect x="0" y="0" fill="#FFFFFF" width="50" height="51"/>
	</g>
	<g>
		<g>
			<rect x="52" y="0" fill="#FFFFFF" width="1" height="51"/>
		</g>
	</g>
	<g>
		<g>
			<rect x="55" y="0" fill="#FFFFFF" width="1" height="51"/>
		</g>
	</g>
	<g>
		<g>
			<rect x="58" y="0" fill="#FFFFFF" width="1" height="51"/>
		</g>
	</g>
	<g>
		<g>
			<rect x="61" y="0" fill="#FFFFFF" width="1" height="51"/>
		</g>
	</g>
	<g>
		<g>
			<rect x="64" y="0" fill="#FFFFFF" width="1" height="51"/>
		</g>
	</g>
	<g>
		<g>
			<rect x="67" y="0" fill="#FFFFFF" width="1" height="51"/>
		</g>
	</g>
	<g>
		<g>
			<rect x="70" y="0" fill="#FFFFFF" width="1" height="51"/>
		</g>
	</g>
	<g>
		<g>
			<rect x="73" y="0" fill="#FFFFFF" width="1" height="51"/>
		</g>
	</g>
	<g>
		<g>
			<rect x="76" y="0" fill="#FFFFFF" width="1" height="51"/>
		</g>
	</g>
	<g>
		<g>
			<rect x="79" y="0" fill="#FFFFFF" width="1" height="51"/>
		</g>
	</g>
	<g>
		<g>
			<rect x="82" y="0" fill="#FFFFFF" width="1" height="51"/>
		</g>
	</g>
	<g>
		<g>
			<rect x="85" y="0" fill="#FFFFFF" width="1" height="51"/>
		</g>
	</g>
	<g>
		<g>
			<rect x="88" y="0" fill="#FFFFFF" width="1" height="51"/>
		</g>
	</g>
	<g>
		<g>
			<rect x="91" y="0" fill="#FFFFFF" width="1" height="51"/>
		</g>
	</g>
	<g>
		<g>
			<rect x="94" y="0" fill="#FFFFFF" width="1" height="51"/>
		</g>
	</g>
	<g>
		<g>
			<rect x="97" y="0" fill="#FFFFFF" width="1" height="51"/>
		</g>
	</g>
</g>
</svg>
