<svg version="1" xmlns="http://www.w3.org/2000/svg" viewBox="0 0 194.1 100" enable-background="new 0 0 194.1 100"><g fill="#fff"><path d="M97.4 85.6c.9-.6 22.7-12 .7-48 19.2 33.5-.8 48-.7 48zM90.4 0s-20.9 4.7.5 39.1c17.5 28.1 4.7 46.1 4.7 46.1s20-14.2.3-48.3C76.3 2.9 90.4 0 90.4 0zM97.6 58.5c-1.3-5.6-3.7-12-8.1-19.1-4.3-7-6.9-12.7-8.3-17.5 0 0-1.4 10.2 5.6 19.2C96 52.8 97.6 58.5 97.6 58.5zM98.7 9.2c-3.6-2-8.5-.3-12.1 3.8 3.3-2.2 7.1-2.7 9.8-.9 4.4 2.8 4.9 10.3 1 16.5-.7 1-1.6 2.9-2.4 3.7 1.5-1.6 3.8-4.5 5.2-7 3.6-6.5 2.9-13.6-1.5-16.1zM116.4 70l-.5 1.5c-.2.6-.3.9.2 1.1h-1.9c.6-.3.8-.9 1-1.5l1.7-4.3c.1-.4.3-.8-.2-1h1.6l2.1 5.3c.2.6.4 1.2 1 1.5h-2.1c.5-.2.4-.3.1-1.1L119 70h-2.6zm1.3-3.4l-1 2.6h2l-1-2.6zM127.5 66.9c-.4-.4-1-.7-1.6-.7-.6 0-1.3.2-1.3.9 0 1.4 3.6 1.4 3.6 3.3 0 1.1-1.2 2.1-2.8 2.1-.6 0-1.3-.1-1.8-.3l-.3-1.3c.6.5 1.5.9 2.3.9.6 0 1.5-.4 1.5-1.1 0-1.6-3.5-1.3-3.5-3.5 0-1.3 1.3-1.8 2.6-1.8.5 0 1 .1 1.5.2v1.3zM134.4 66.9c-.4-.4-1-.7-1.6-.7-.6 0-1.3.2-1.3.9 0 1.4 3.5 1.4 3.5 3.3 0 1.1-1.2 2.1-2.8 2.1-.6 0-1.3-.1-1.8-.3l-.3-1.3c.6.5 1.5.9 2.3.9.6 0 1.5-.4 1.5-1.1 0-1.6-3.5-1.3-3.5-3.5 0-1.3 1.3-1.8 2.6-1.8.5 0 1 .1 1.5.2v1.3zM144.7 69c0 2.1-1.7 3.6-3.8 3.6-2 0-3.8-1.5-3.8-3.6 0-2 1.7-3.6 3.9-3.6 2.1.1 3.7 1.8 3.7 3.6zm-6.4 0c0 1.4 1 2.9 2.6 2.9s2.6-1.1 2.6-2.7c0-1.5-1-3-2.6-3-1.6.1-2.6 1.2-2.6 2.8zM152.2 67c-.6-.4-1.2-.6-1.9-.6-1.4 0-2.4 1-2.4 2.5s1 2.9 2.6 2.9c.8 0 1.5-.3 2.2-.7l-.5 1.2c-.5.2-1 .3-1.6.3-2.4 0-3.9-1.4-3.9-3.6 0-2.1 1.5-3.6 3.6-3.6.6 0 1.3.1 1.9.3V67zM155 67.2c0-.5.1-1.2-.5-1.4h2c-.5.2-.5 1-.5 1.4v3.9c0 .5-.1 1.2.5 1.4h-2c.5-.2.5-1 .5-1.4v-3.9zM160.7 70l-.5 1.5c-.2.6-.3.9.2 1.1h-1.9c.6-.3.8-.9 1-1.5l1.7-4.3c.1-.4.3-.8-.2-1h1.6l2.1 5.3c.2.6.4 1.2 1 1.5h-2.1c.5-.2.4-.3.1-1.1l-.6-1.5h-2.4zm1.3-3.4l-1 2.6h2l-1-2.6zM169.6 71.2c0 .6 0 1 .5 1.3h-2c.5-.2.5-1 .5-1.4v-4.6h-.9c-.4 0-.9.1-1.2.4l.3-1.2h5l-.3 1.2c-.1-.4-.5-.4-.9-.4h-.9v4.7zM173.9 67.2c0-.5.1-1.2-.5-1.4h2c-.5.2-.5 1-.5 1.4v3.9c0 .5-.1 1.2.5 1.4h-2c.5-.2.5-1 .5-1.4v-3.9zM185.1 69c0 2.1-1.7 3.6-3.8 3.6-2 0-3.8-1.5-3.8-3.6 0-2 1.7-3.6 3.9-3.6 2.2.1 3.7 1.8 3.7 3.6zm-6.4 0c0 1.4 1 2.9 2.6 2.9s2.6-1.1 2.6-2.7c0-1.5-1-3-2.6-3-1.5.1-2.6 1.2-2.6 2.8zM188.5 71.2c0 .6 0 1 .5 1.3h-1.8c.5-.3.5-.7.5-1.3v-4.1c0-.6 0-1-.5-1.3h1.5c0 .1.1.2.2.3l.1.2 3.8 4.8v-3.9c0-.6 0-1-.5-1.3h1.8c-.5.3-.5.7-.5 1.3V73c-.7-.2-1.1-.6-1.5-1.2l-3.5-4.5v3.9zM116.4 70l-.5 1.5c-.2.6-.3.9.2 1.1h-1.9c.6-.3.8-.9 1-1.5l1.7-4.3c.1-.4.3-.8-.2-1h1.6l2.1 5.3c.2.6.4 1.2 1 1.5h-2.1c.5-.2.4-.3.1-1.1L119 70h-2.6zm1.3-3.4l-1 2.6h2l-1-2.6zM127.5 66.9c-.4-.4-1-.7-1.6-.7-.6 0-1.3.2-1.3.9 0 1.4 3.6 1.4 3.6 3.3 0 1.1-1.2 2.1-2.8 2.1-.6 0-1.3-.1-1.8-.3l-.3-1.3c.6.5 1.5.9 2.3.9.6 0 1.5-.4 1.5-1.1 0-1.6-3.5-1.3-3.5-3.5 0-1.3 1.3-1.8 2.6-1.8.5 0 1 .1 1.5.2v1.3zM134.4 66.9c-.4-.4-1-.7-1.6-.7-.6 0-1.3.2-1.3.9 0 1.4 3.5 1.4 3.5 3.3 0 1.1-1.2 2.1-2.8 2.1-.6 0-1.3-.1-1.8-.3l-.3-1.3c.6.5 1.5.9 2.3.9.6 0 1.5-.4 1.5-1.1 0-1.6-3.5-1.3-3.5-3.5 0-1.3 1.3-1.8 2.6-1.8.5 0 1 .1 1.5.2v1.3zM144.7 69c0 2.1-1.7 3.6-3.8 3.6-2 0-3.8-1.5-3.8-3.6 0-2 1.7-3.6 3.9-3.6 2.1.1 3.7 1.8 3.7 3.6zm-6.4 0c0 1.4 1 2.9 2.6 2.9s2.6-1.1 2.6-2.7c0-1.5-1-3-2.6-3-1.6.1-2.6 1.2-2.6 2.8zM152.2 67c-.6-.4-1.2-.6-1.9-.6-1.4 0-2.4 1-2.4 2.5s1 2.9 2.6 2.9c.8 0 1.5-.3 2.2-.7l-.5 1.2c-.5.2-1 .3-1.6.3-2.4 0-3.9-1.4-3.9-3.6 0-2.1 1.5-3.6 3.6-3.6.6 0 1.3.1 1.9.3V67zM155 67.2c0-.5.1-1.2-.5-1.4h2c-.5.2-.5 1-.5 1.4v3.9c0 .5-.1 1.2.5 1.4h-2c.5-.2.5-1 .5-1.4v-3.9zM160.7 70l-.5 1.5c-.2.6-.3.9.2 1.1h-1.9c.6-.3.8-.9 1-1.5l1.7-4.3c.1-.4.3-.8-.2-1h1.6l2.1 5.3c.2.6.4 1.2 1 1.5h-2.1c.5-.2.4-.3.1-1.1l-.6-1.5h-2.4zm1.3-3.4l-1 2.6h2l-1-2.6zM169.6 71.2c0 .6 0 1 .5 1.3h-2c.5-.2.5-1 .5-1.4v-4.6h-.9c-.4 0-.9.1-1.2.4l.3-1.2h5l-.3 1.2c-.1-.4-.5-.4-.9-.4h-.9v4.7zM173.9 67.2c0-.5.1-1.2-.5-1.4h2c-.5.2-.5 1-.5 1.4v3.9c0 .5-.1 1.2.5 1.4h-2c.5-.2.5-1 .5-1.4v-3.9zM185.1 69c0 2.1-1.7 3.6-3.8 3.6-2 0-3.8-1.5-3.8-3.6 0-2 1.7-3.6 3.9-3.6 2.2.1 3.7 1.8 3.7 3.6zm-6.4 0c0 1.4 1 2.9 2.6 2.9s2.6-1.1 2.6-2.7c0-1.5-1-3-2.6-3-1.5.1-2.6 1.2-2.6 2.8zM188.5 71.2c0 .6 0 1 .5 1.3h-1.8c.5-.3.5-.7.5-1.3v-4.1c0-.6 0-1-.5-1.3h1.5c0 .1.1.2.2.3l.1.2 3.8 4.8v-3.9c0-.6 0-1-.5-1.3h1.8c-.5.3-.5.7-.5 1.3V73c-.7-.2-1.1-.6-1.5-1.2l-3.5-4.5v3.9zM29.7 19.3c0-.5.1-1.2-.5-1.4h2.4c1.4 0 2.2.6 2.2 1.5 0 .7-.4 1.1-1 1.3.9.2 1.7.8 1.7 1.8 0 .8-.5 1.5-1.2 1.8-.7.4-1.5.3-2.3.3h-1.7c.5-.2.5-1 .5-1.4v-3.9zm1.3 1.3c.7 0 1.6-.2 1.6-1.1 0-.7-.6-1-1.3-1h-.7v2.1h.4zm.6 3.3c1 0 1.7-.3 1.7-1.3s-.8-1.3-1.9-1.3h-.7v2.6h.9zM39.2 17.8c1.4 0 2.1.7 2.1 1.7 0 .9-.8 1.6-1.6 1.8l1.5 1.9c.4.5 1.1 1.1 1.7 1.4H42c-.5 0-.9-.1-1.2-.5l-1.3-1.6-.9-1.5c.8-.1 1.8-.5 1.8-1.5 0-.7-.6-1.2-1.3-1.1h-.7v4.7c0 .5-.1 1.2.5 1.4h-2c.5-.2.5-1 .5-1.4v-3.9c0-.5.1-1.2-.5-1.4h2.3zM44.3 19.3c0-.5.1-1.2-.5-1.4h2c-.5.2-.5 1-.5 1.4v3.9c0 .5-.1 1.2.5 1.4h-2c.5-.2.5-1 .5-1.4v-3.9zM50.5 23.3c0 .6 0 1 .5 1.3h-2c.5-.2.5-1 .5-1.4v-4.6h-.9c-.4 0-.9.1-1.2.4l.3-1.2h5l-.4 1.2c-.1-.4-.5-.4-.9-.4h-.9v4.7zM54.8 19.3c0-.5.1-1.2-.5-1.4h2c-.5.2-.5 1-.5 1.4v3.9c0 .5-.1 1.2.5 1.4h-2c.5-.2.5-1 .5-1.4v-3.9zM62.6 19.1c-.4-.4-1-.7-1.6-.7-.6 0-1.3.2-1.3.9 0 1.4 3.5 1.4 3.5 3.3 0 1.1-1.2 2.1-2.8 2.1-.6 0-1.3-.1-1.8-.3l-.3-1.3c.6.5 1.5.9 2.3.9.6 0 1.5-.4 1.5-1.1 0-1.6-3.5-1.3-3.5-3.5 0-1.3 1.3-1.8 2.6-1.8.5 0 1 .1 1.5.2v1.3zM66.9 21.3v1.9c0 .5-.1 1.2.5 1.4h-2c.5-.2.5-1 .5-1.4v-3.9c0-.5.1-1.2-.5-1.4h2c-.5.2-.5 1-.5 1.4v1.3h3.7v-1.3c0-.5.1-1.2-.5-1.4h2c-.5.2-.5 1-.5 1.4v3.9c0 .5-.1 1.2.5 1.4h-2c.5-.2.5-1 .5-1.4v-1.9h-3.7zM29.7 19.3c0-.5.1-1.2-.5-1.4h2.4c1.4 0 2.2.6 2.2 1.5 0 .7-.4 1.1-1 1.3.9.2 1.7.8 1.7 1.8 0 .8-.5 1.5-1.2 1.8-.7.4-1.5.3-2.3.3h-1.7c.5-.2.5-1 .5-1.4v-3.9zm1.3 1.3c.7 0 1.6-.2 1.6-1.1 0-.7-.6-1-1.3-1h-.7v2.1h.4zm.6 3.3c1 0 1.7-.3 1.7-1.3s-.8-1.3-1.9-1.3h-.7v2.6h.9zM39.2 17.8c1.4 0 2.1.7 2.1 1.7 0 .9-.8 1.6-1.6 1.8l1.5 1.9c.4.5 1.1 1.1 1.7 1.4H42c-.5 0-.9-.1-1.2-.5l-1.3-1.6-.9-1.5c.8-.1 1.8-.5 1.8-1.5 0-.7-.6-1.2-1.3-1.1h-.7v4.7c0 .5-.1 1.2.5 1.4h-2c.5-.2.5-1 .5-1.4v-3.9c0-.5.1-1.2-.5-1.4h2.3zM44.3 19.3c0-.5.1-1.2-.5-1.4h2c-.5.2-.5 1-.5 1.4v3.9c0 .5-.1 1.2.5 1.4h-2c.5-.2.5-1 .5-1.4v-3.9zM50.5 23.3c0 .6 0 1 .5 1.3h-2c.5-.2.5-1 .5-1.4v-4.6h-.9c-.4 0-.9.1-1.2.4l.3-1.2h5l-.4 1.2c-.1-.4-.5-.4-.9-.4h-.9v4.7zM54.8 19.3c0-.5.1-1.2-.5-1.4h2c-.5.2-.5 1-.5 1.4v3.9c0 .5-.1 1.2.5 1.4h-2c.5-.2.5-1 .5-1.4v-3.9zM62.6 19.1c-.4-.4-1-.7-1.6-.7-.6 0-1.3.2-1.3.9 0 1.4 3.5 1.4 3.5 3.3 0 1.1-1.2 2.1-2.8 2.1-.6 0-1.3-.1-1.8-.3l-.3-1.3c.6.5 1.5.9 2.3.9.6 0 1.5-.4 1.5-1.1 0-1.6-3.5-1.3-3.5-3.5 0-1.3 1.3-1.8 2.6-1.8.5 0 1 .1 1.5.2v1.3zM66.9 21.3v1.9c0 .5-.1 1.2.5 1.4h-2c.5-.2.5-1 .5-1.4v-3.9c0-.5.1-1.2-.5-1.4h2c-.5.2-.5 1-.5 1.4v1.3h3.7v-1.3c0-.5.1-1.2-.5-1.4h2c-.5.2-.5 1-.5 1.4v3.9c0 .5-.1 1.2.5 1.4h-2c.5-.2.5-1 .5-1.4v-1.9h-3.7zM1.5 38.1c0-1.5.2-4-1.5-4.7v-.1h8.1c4.5 0 7.1 1.9 7.1 5 0 2.3-1.5 3.6-3.4 4.5 3.1.7 5.6 2.7 5.6 6.1 0 2.6-1.8 4.9-4.1 6-2.4 1.2-5.1 1.1-7.7 1.1H0v-.1c1.7-.7 1.5-3.2 1.5-4.7V38.1zm4.6 4.3c2.2 0 5.4-.8 5.4-3.6 0-2.4-2.1-3.1-4.2-3.1L5 35.6v6.7l1.1.1zm1.9 11c2.7 0 5.6-1 5.6-4.3s-3.3-4.5-6.2-4.5H5v8.8h3zM159.6 38.1c0-1.5.2-4-1.5-4.7v-.1h8.1c4.5 0 7.1 1.9 7.1 5 0 2.3-1.5 3.6-3.4 4.5 3.1.7 5.6 2.7 5.6 6.1 0 2.6-1.8 4.9-4.1 6-2.4 1.2-5.1 1.1-7.7 1.1h-5.6v-.1c1.7-.7 1.5-3.2 1.5-4.7V38.1zm4.6 4.3c2.2 0 5.4-.8 5.4-3.6 0-2.4-2.1-3.1-4.2-3.1l-2.3-.1v6.7l1.1.1zm1.9 11c2.7 0 5.6-1 5.6-4.3s-3.3-4.5-6.2-4.5h-2.4v8.8h3zM26.7 53.3H31c2.9 0 4.6-.5 6.3-2h.1l-1.5 4.5H21.7v-.1c1.7-.6 1.5-3.2 1.5-4.7V38.1c0-1.6.2-4.1-1.5-4.7v-.1h12.7v3.8h-.1c-1.1-1.2-2.5-1.4-4-1.4h-3.5v6.7h4.1c.5 0 1.1 0 1.5-.2h.1v3.6h-.1c-.5-1-2-1-3-1h-2.5v8.5zM46.3 53.3h4.3c2.9 0 4.6-.5 6.3-2h.1l-1.5 4.5H41.3v-.1c1.7-.6 1.5-3.2 1.5-4.7V38.1c0-1.6.2-4.1-1.5-4.7v-.1H54v3.8h-.1c-1.1-1.2-2.5-1.4-4-1.4h-3.5v6.7h4.1c.5 0 1.1 0 1.5-.2v3.6h-.1c-.5-1-2-1-3-1h-2.5v8.5zM70.4 44.8c2.8-.7 5.4-3 5.4-6 0-3.1-2.5-5.5-7.1-5.5h-8.1v.1c1.7.7 1.5 3.2 1.5 4.7V51c0 1.5.2 4.1-1.5 4.7v.1h6.5v-.1c-1.7-.6-1.5-3.1-1.5-4.7V35.7h2.3c2.3-.1 4.4 1 4.4 3.5 0 3.2-3.2 4.5-5.9 4.9l3.1 4.8 2.9 3.6c.6-.9 1.3-1.7 2-2.6l-4-5.1zM73.8 54.1c1 1.3 2.2 1.7 4 1.7h3.1c-1.9-1.2-4.1-3-5.5-4.8l-.4-.5c-.7.9-1.3 1.8-1.9 2.7l.7.9zM120.7 58.4c1.3 3.9 1.5 8 1.1 12.5-1.3 16.1-14.1 28.2-28.6 27C78.8 96.6 67 82.6 68.4 66.5c.4-4.9 2.2-9.3 4.7-13.3.6-.9 1.2-1.8 1.9-2.7 2.6-3.4 5.8-6.4 8.8-8.6-3.2 2-6.5 4.7-9.2 8.1-.7.8-1.4 1.7-2 2.6-3 4.3-5.2 9.3-5.7 14.6-1.4 16.4 8.8 30.8 25.8 32.7 15 1.7 28.5-11.7 29.9-28.2.4-4.7-.5-9.3-1.9-13.3zM119.3 33.3c4.4 0 7.8 2.2 7.8 6 0 3.9-3.7 6.4-7.5 6.4-.9 0-1.7-.1-2.5-.5 2.9-.2 6.1-2 6.1-5.3 0-3-2.1-4.2-4.9-4.2h-2.4v15.7c0 1.9 0 3.3 1.8 4.3v.1H111v-.1c1.7-.6 1.5-3.2 1.5-4.7V38.1c0-1.5.2-4-1.5-4.7v-.1h8.3zM147.4 53.6c-1.5 2-4.3 2.8-6.7 2.8-2.3 0-4.6-.7-6.2-2.4-1.8-2-1.7-4.3-1.7-6.8V38c0-1.5.2-4-1.5-4.7v-.1h6.5v.1c-1.7.7-1.5 3.2-1.5 4.7v9.2c0 4.6 1.9 6.7 5.4 6.7 1.9 0 3.9-.8 5-2.4.8-1 .7-1.9.7-3.1V38.1c0-1.5.2-4-1.5-4.7v-.1h6.5v.1c-1.7.7-1.5 3.2-1.5 4.7V51c0 1.5-.2 4 1.5 4.7v.1h-5v-2.2z"/></g></svg>